<?xml version="1.0" standalone="no"?>
<!DOCTYPE svg PUBLIC "-//W3C//DTD SVG 20010904//EN"
 "http://www.w3.org/TR/2001/REC-SVG-20010904/DTD/svg10.dtd">
<svg version="1.0" xmlns="http://www.w3.org/2000/svg"
 width="237.000000pt" height="237.000000pt" viewBox="0 0 237.000000 237.000000"
 preserveAspectRatio="xMidYMid meet">
<metadata>
Created by potrace 1.14, written by Peter Selinger 2001-2017
</metadata>
<g transform="translate(0.000000,237.000000) scale(0.100000,-0.100000)"
fill="#000000" stroke="none">
<path d="M1058 2365 c-2 -2 -23 -5 -48 -9 -239 -31 -501 -166 -676 -348 -55
-57 -164 -198 -164 -211 0 -4 -13 -28 -28 -54 -49 -83 -110 -257 -128 -365 -3
-18 -7 -94 -8 -168 -3 -122 0 -158 28 -307 23 -119 129 -339 220 -453 51 -64
198 -200 261 -242 219 -145 436 -209 695 -204 319 7 583 119 810 346 182 181
293 395 336 650 5 25 8 108 8 185 0 156 -5 201 -40 327 -9 35 -21 67 -25 72
-5 6 -9 16 -9 23 0 23 -62 145 -119 233 -67 104 -219 258 -320 325 -210 138
-434 205 -685 203 -58 -1 -107 -2 -108 -3z"/>
</g>
</svg>
