<?xml version="1.0" encoding="utf-8"?>
<!-- Generator: Adobe Illustrator 26.3.1, SVG Export Plug-In . SVG Version: 6.00 Build 0)  -->
<svg version="1.1" xmlns="http://www.w3.org/2000/svg" xmlns:xlink="http://www.w3.org/1999/xlink" x="0px" y="0px"
	 viewBox="0 0 612 792" style="enable-background:new 0 0 612 792;" xml:space="preserve">
<style type="text/css">
	.st0{display:none;}
	.st1{display:inline;}
	.st2{fill:#B58D24;}
	.st3{fill:#B68D24;}
	.st4{fill:#B78C25;}
	.st5{fill:none;stroke:#B78C25;stroke-width:2;stroke-miterlimit:10;}
	.st6{fill:#B78C25;stroke:#B78C25;stroke-miterlimit:10;}
	.st7{fill:none;stroke:#B78C25;stroke-miterlimit:10;}
	.st8{fill:none;stroke:#B78C25;stroke-width:0.75;stroke-miterlimit:10;}
	.st9{fill:none;stroke:#B78C25;stroke-width:0.25;stroke-miterlimit:10;}
	.st10{fill:#004C74;stroke:#B78C25;stroke-miterlimit:10;}
</style>
<g id="Capa_1" class="st0">
	<g class="st1">
		<path class="st2" d="M248.74,140.56h-46.61c-0.64,0-1.16-0.52-1.16-1.16l0,0c0-0.64,0.52-1.16,1.16-1.16h46.61
			c0.64,0,1.16,0.52,1.16,1.16l0,0C249.89,140.04,249.38,140.56,248.74,140.56z"/>
		<path class="st2" d="M248.74,152.91h-46.61c-0.64,0-1.16-0.52-1.16-1.16l0,0c0-0.64,0.52-1.16,1.16-1.16h46.61
			c0.64,0,1.16,0.52,1.16,1.16l0,0C249.89,152.39,249.38,152.91,248.74,152.91z"/>
		<path class="st2" d="M248.74,165.08h-46.61c-0.64,0-1.16-0.52-1.16-1.16l0,0c0-0.64,0.52-1.16,1.16-1.16h46.61
			c0.64,0,1.16,0.52,1.16,1.16l0,0C249.89,164.56,249.38,165.08,248.74,165.08z"/>
		<path class="st2" d="M248.74,177.52h-46.61c-0.64,0-1.16-0.52-1.16-1.16v0c0-0.64,0.52-1.16,1.16-1.16h46.61
			c0.64,0,1.16,0.52,1.16,1.16v0C249.89,177,249.38,177.52,248.74,177.52z"/>
		<path class="st2" d="M248.74,189.78h-46.61c-0.64,0-1.16-0.52-1.16-1.16l0,0c0-0.64,0.52-1.16,1.16-1.16h46.61
			c0.64,0,1.16,0.52,1.16,1.16l0,0C249.89,189.26,249.38,189.78,248.74,189.78z"/>
		<path class="st3" d="M303.19,184.63h-17.63c-0.64,0-1.16-0.52-1.16-1.16v0c0-0.64,0.52-1.16,1.16-1.16h17.63
			c0.64,0,1.16,0.52,1.16,1.16v0C304.35,184.12,303.83,184.63,303.19,184.63z"/>
		<path class="st3" d="M303.27,191.92h-17.63c-0.64,0-1.16-0.52-1.16-1.16l0,0c0-0.64,0.52-1.16,1.16-1.16h17.63
			c0.64,0,1.16,0.52,1.16,1.16l0,0C304.43,191.41,303.91,191.92,303.27,191.92z"/>
		<path class="st3" d="M303.19,199.38h-17.63c-0.64,0-1.16-0.52-1.16-1.16l0,0c0-0.64,0.52-1.16,1.16-1.16h17.63
			c0.64,0,1.16,0.52,1.16,1.16l0,0C304.34,198.87,303.83,199.38,303.19,199.38z"/>
		<path class="st4" d="M271.44,201.27h-9.47c-0.64,0-1.16-0.52-1.16-1.16l0,0c0-0.64,0.52-1.16,1.16-1.16h9.47
			c0.64,0,1.16,0.52,1.16,1.16l0,0C272.6,200.75,272.08,201.27,271.44,201.27z"/>
		<circle class="st5" cx="266.84" cy="185.23" r="6.41"/>
		<g>
			<path class="st5" d="M281.51,140.41v-22.55c0-1.62-1.32-2.94-2.94-2.94h-90.59c-1.62,0-2.94,1.32-2.94,2.94v86.73
				c0,1.62,1.32,2.94,2.94,2.94h69.89"/>
			<line class="st5" x1="281.51" y1="174.39" x2="281.51" y2="163.12"/>
			<path class="st5" d="M281.51,174.39h26.98c1.62,0,2.94,1.32,2.94,2.94v27.3c0,1.62-1.32,2.94-2.94,2.94h-50.24
				c-0.13,0-0.26-0.02-0.39-0.04"/>
			<path class="st5" d="M281.51,174.39h-23.26c-1.62,0-2.94,1.32-2.94,2.94v27.3c0,1.49,1.11,2.71,2.55,2.9"/>
			<path class="st5" d="M281.51,140.41c-11.38,0.91-20.28,10.4-20.35,11.35c-0.06,0.84,8.96,10.44,20.35,11.35"/>
			<path class="st5" d="M281.51,163.12c0.57,0.05,1.15,0.08,1.73,0.08c12.19,0,22.11-10.29,22.08-11.43
				c-0.05-1.6-9.88-11.43-22.08-11.43c-0.58,0-1.16,0.03-1.73,0.08"/>
		</g>
		<circle class="st5" cx="283.31" cy="151.58" r="6.41"/>
		<path class="st6" d="M213.81,124.26h-11.87c-0.64,0-1.16-0.52-1.16-1.16v0c0-0.64,0.52-1.16,1.16-1.16h11.87
			c0.64,0,1.16,0.52,1.16,1.16v0C214.97,123.75,214.45,124.26,213.81,124.26z"/>
		<path class="st6" d="M234.19,124.26h-11.87c-0.64,0-1.16-0.52-1.16-1.16v0c0-0.64,0.52-1.16,1.16-1.16h11.87
			c0.64,0,1.16,0.52,1.16,1.16v0C235.35,123.75,234.83,124.26,234.19,124.26z"/>
		<path class="st6" d="M254,124.26h-11.87c-0.64,0-1.16-0.52-1.16-1.16v0c0-0.64,0.52-1.16,1.16-1.16H254
			c0.64,0,1.16,0.52,1.16,1.16v0C255.15,123.75,254.64,124.26,254,124.26z"/>
		<path class="st6" d="M274.06,124.35H262.2c-0.64,0-1.16-0.52-1.16-1.16l0,0c0-0.64,0.52-1.16,1.16-1.16h11.87
			c0.64,0,1.16,0.52,1.16,1.16l0,0C275.22,123.83,274.7,124.35,274.06,124.35z"/>
	</g>
</g>
<g id="Capa_2" class="st0">
	<g class="st1">
		<path class="st5" d="M417.81,117.23h-10.46v-6.98c0-1.48,1.2-2.68,2.68-2.68h5.09c1.48,0,2.68,1.2,2.68,2.68V117.23z"/>
		<path class="st5" d="M423.49,117.1l4.34-11.13c1.48-2.7,3.26-3.37,4.87-3.37h21.02c1.9,0,3.99,1.28,4.77,3.01l5.05,11.61
			C463.54,117.23,423.79,117.1,423.49,117.1z"/>
		<g>
			<path class="st5" d="M494.47,132.2v-12.1c0-1.59-1.29-2.88-2.88-2.88h-96.24c-1.59,0-2.88,1.29-2.88,2.88v12.1"/>
			<path class="st5" d="M494.47,132.2v48.87c0,1.59-1.29,2.88-2.88,2.88h-96.24c-1.59,0-2.88-1.29-2.88-2.88V132.2"/>
			<line class="st5" x1="461.09" y1="132.2" x2="494.47" y2="132.2"/>
			<line class="st5" x1="425.31" y1="132.2" x2="392.47" y2="132.2"/>
			<path class="st5" d="M425.31,132.2c4.92-3.88,11.13-6.21,17.89-6.21c6.76,0,12.97,2.32,17.89,6.21"/>
			<path class="st5" d="M425.31,132.2c-6.71,5.3-11.03,13.5-11.03,22.71c0,15.97,12.95,28.92,28.92,28.92
				c15.97,0,28.92-12.95,28.92-28.92c0-9.21-4.31-17.41-11.03-22.71"/>
			<circle class="st5" cx="443.2" cy="155.05" r="18.17"/>
		</g>
	</g>
</g>
<g id="Capa_3" class="st0">
	<g class="st1">
		<g>
			<path class="st5" d="M194.16,367.09c0,4.4,3.57,7.96,7.96,7.96h89.32c4.4,0,7.96-3.57,7.96-7.96v-58.35H194.16V367.09z"/>
			<path class="st5" d="M291.45,287.67h-89.32c-4.4,0-7.96,3.57-7.96,7.96v13.1h105.25v-13.1
				C299.41,291.24,295.85,287.67,291.45,287.67z"/>
		</g>
		<circle class="st5" cx="246.4" cy="340.05" r="19.91"/>
		<line class="st5" x1="197.76" y1="289.22" x2="219.6" y2="308.89"/>
		<line class="st5" x1="216.25" y1="287.77" x2="238.1" y2="308.81"/>
		<line class="st5" x1="235.04" y1="287.51" x2="256.88" y2="308.89"/>
		<line class="st5" x1="254.19" y1="287.51" x2="276.04" y2="308.81"/>
		<line class="st5" x1="273.41" y1="287.59" x2="295.26" y2="308.96"/>
		<path class="st5" d="M239.04,331.04v17.6c0,0.38,0.39,0.64,0.74,0.49l18.42-7.85c0.41-0.18,0.44-0.75,0.05-0.96l-18.1-9.93
			C239.65,330.12,239.04,330.48,239.04,331.04z"/>
	</g>
</g>
<g id="Capa_4">
	<g>
		<polygon class="st5" points="425.34,342.41 433.82,361.18 433.82,366.04 457.87,366.04 457.87,360.34 466.21,342.97 448,304.05 
			442.86,304.05 		"/>
		<rect x="431.04" y="365.62" class="st5" width="29.47" height="10.98"/>
		<line class="st5" x1="445.64" y1="303.77" x2="445.64" y2="336.3"/>
		<circle class="st5" cx="445.85" cy="342.48" r="5.77"/>
		<rect x="439.66" y="287.51" class="st5" width="12.37" height="12.37"/>
		<circle class="st5" cx="408.11" cy="292.44" r="4.3"/>
		<circle class="st5" cx="484.2" cy="292.44" r="4.3"/>
		<rect x="402.55" y="324.76" class="st5" width="12.37" height="12.37"/>
		<rect x="477.05" y="324.55" class="st5" width="12.37" height="12.37"/>
		<path class="st5" d="M408.8,324.61c0,0,0-22.68,30.75-31.6c0.11-0.03,0.09-0.19-0.02-0.19h-27.39"/>
		<path class="st5" d="M482.94,324.61c0,0,0-22.68-30.75-31.6c-0.11-0.03-0.09-0.19,0.02-0.19h27.39"/>
	</g>
</g>
<g id="Capa_5" class="st0">
	<g class="st1">
		<path class="st5" d="M309.05,500.8h-34.57c-2.17,0-3.94-1.76-3.94-3.94v-21.48c0-2.17,1.76-3.94,3.94-3.94h34.57
			c2.17,0,3.94,1.76,3.94,3.94v21.48C312.99,499.03,311.23,500.8,309.05,500.8z"/>
		<path class="st5" d="M272.12,473.03l17.85,16.8c0.76,0.71,1.93,0.73,2.71,0.03l18.73-16.83"/>
		<line class="st5" x1="271.67" y1="499.22" x2="286.8" y2="487.48"/>
		<line class="st5" x1="312.48" y1="499.67" x2="296.11" y2="486.46"/>
		<path class="st5" d="M222.35,545.58l-19.06,10.03c-0.82,0.43-1.83,0.12-2.26-0.7l-10.36-19.7c-0.43-0.82-0.12-1.83,0.7-2.26
			l19.06-10.03c0.82-0.43,1.83-0.12,2.26,0.7l10.36,19.7C223.48,544.14,223.17,545.15,222.35,545.58z"/>
		<path class="st5" d="M199.28,552.5l-6.79,3.39c-1.13,0.56-2.5,0.1-3.06-1.02l-4.97-9.97c-0.56-1.13-0.1-2.5,1.02-3.06l6.79-3.39
			L199.28,552.5z"/>
		<path class="st5" d="M227.96,575.43l-2.53,1.32c-2.02,1.05-4.51,0.27-5.56-1.75l-11.52-22.06l9.84-5.14l11.52,22.06
			C230.76,571.89,229.98,574.38,227.96,575.43z"/>
		<g>
			<path class="st5" d="M242.4,514.71l-6.19-12.68c-0.27-0.55-0.99-0.67-1.43-0.24l-22.07,21.88l10.76,20.6l29.45-5.01
				c0.67-0.09,1.06-0.81,0.76-1.42l-4.82-9.87"/>
			<path class="st5" d="M248.87,527.96c3.48-0.71,6.1-3.78,6.1-7.47c0-4.21-3.41-7.62-7.62-7.62c-1.89,0-3.62,0.69-4.95,1.83"/>
			<line class="st5" x1="248.87" y1="527.96" x2="242.4" y2="514.71"/>
		</g>
		<path class="st5" d="M246.83,454.68h-31.34c-2.82,0-5.1,2.28-5.1,5.1V478c0,2.82,2.28,5.1,5.1,5.1h3.34l-0.15-0.25l0.15,0.25h0.25
			h0.04h-0.04h-0.25l4.58,7.75c0.29,0.55,1.07,0.58,1.39,0.05l5.01-7.8h-0.28h0.28l0.15-0.23l-0.15,0.23h17.02
			c2.82,0,5.1-2.28,5.1-5.1v-18.22C251.93,456.97,249.65,454.68,246.83,454.68z"/>
		<circle class="st7" cx="220.48" cy="468.34" r="2.67"/>
		<circle class="st7" cx="231.02" cy="468.34" r="2.67"/>
		<circle class="st7" cx="241.57" cy="468.34" r="2.67"/>
		<g>
			<path class="st5" d="M299.61,542.87h11.54c1.89,0,3.42,1.53,3.42,3.42v0.42c0,1.24-0.67,2.33-1.66,2.93
				c0.45,0.58,0.72,1.3,0.72,2.09v0.43c0,1.35-0.78,2.51-1.91,3.07c0.42,0.57,0.66,1.26,0.66,2.02v0.43c0,1.47-0.93,2.72-2.22,3.2
				c0.27,0.49,0.42,1.05,0.42,1.64v0.85c0,1.89-1.53,3.42-3.42,3.42h-11.54l-6.17,0.08l-2.84-1.94l-2.4,0.05l-0.02-17.59l2.36-1.32
				l4.92-9.32c0.28-0.53,0.44-1.11,0.46-1.71l0.04-0.96c-0.02-0.34-0.25-2.92-0.21-3.26c0.23-1.95,1.2-2.96,2.42-3.35
				c1.46-0.46,3.06,0.09,4.01,1.29l0.78,0.99c0.24,0.3,0.41,0.65,0.52,1.02C299.95,532.5,301.15,537.8,299.61,542.87z"/>
			<path class="st5" d="M277.93,567.4h1.7c2.52,0,4.56-2.04,4.56-4.56v-14.02c0-2.52-2.04-4.56-4.56-4.56h-1.7
				c-2.52,0-4.56,2.04-4.56,4.56v14.02C273.37,565.36,275.41,567.4,277.93,567.4z"/>
			<line class="st5" x1="312.92" y1="549.64" x2="306.68" y2="549.64"/>
			<line class="st5" x1="311.81" y1="555.23" x2="306.47" y2="555.23"/>
			<line class="st5" x1="310.25" y1="560.89" x2="306.47" y2="560.89"/>
			<circle class="st8" cx="278.17" cy="561.57" r="1.85"/>
		</g>
		<line class="st5" x1="251.13" y1="502.83" x2="253.5" y2="495.89"/>
		<line class="st5" x1="262.83" y1="512.68" x2="269.22" y2="509.07"/>
		<line class="st5" x1="263.91" y1="526.8" x2="270.86" y2="529.15"/>
	</g>
</g>
<g id="Capa_6" class="st0">
	<g class="st1">
		<path class="st5" d="M414.4,523.69v-15.77c0-3.46,2.81-6.27,6.27-6.27h27.3c3.46,0,6.27,2.81,6.27,6.27v3.53"/>
		<path class="st5" d="M454.23,540.66v30.13c0,3.46-2.81,6.27-6.27,6.27h-27.3c-3.46,0-6.27-2.81-6.27-6.27"/>
		<line class="st5" x1="419.59" y1="512.91" x2="450.11" y2="512.91"/>
		<line class="st5" x1="419.59" y1="563.92" x2="450.11" y2="563.92"/>
		<line class="st5" x1="431.79" y1="507.77" x2="442.15" y2="507.77"/>
		<circle class="st5" cx="434.32" cy="538.86" r="9.92"/>
		<path class="st5" d="M418.74,544.15l-0.48,1.55c-0.55,1.77-2.43,2.75-4.19,2.21l-8.99-2.79c-1.77-0.55-2.75-2.43-2.21-4.19
			l0.48-1.55c0.55-1.77,2.43-2.75,4.19-2.21l8.99,2.79C418.3,540.5,419.29,542.38,418.74,544.15z"/>
		<path class="st5" d="M419.26,553.71l-0.53,1.7c-0.6,1.94-2.67,3.03-4.61,2.42l-8.36-2.6c-1.94-0.6-3.03-2.67-2.42-4.61l0.53-1.7
			c0.6-1.94,2.67-3.03,4.61-2.42l8.36,2.6C418.78,549.71,419.87,551.77,419.26,553.71z"/>
		<path class="st5" d="M411.89,567.21l-4.57-1.13c-1.95-0.48-3.15-2.46-2.66-4.42l0.42-1.71c0.48-1.95,2.46-3.15,4.42-2.66
			l4.57,1.13c1.95,0.48,3.15,2.46,2.66,4.42l-0.42,1.71C415.82,566.5,413.84,567.69,411.89,567.21z"/>
		<path class="st5" d="M413.11,538.75l-4.57-1.13c-1.95-0.48-3.15-2.46-2.66-4.42l0.42-1.71c0.48-1.95,2.46-3.15,4.42-2.66
			l4.57,1.13c1.95,0.48,3.15,2.46,2.66,4.42l-0.42,1.71C417.04,538.04,415.06,539.23,413.11,538.75z"/>
		<g>
			<path class="st8" d="M389.87,501.89h4.32c0.71,0,1.28,0.57,1.28,1.28v0.16c0,0.47-0.25,0.87-0.62,1.1
				c0.17,0.22,0.27,0.49,0.27,0.78v0.16c0,0.5-0.29,0.94-0.72,1.15c0.16,0.21,0.25,0.47,0.25,0.76v0.16c0,0.55-0.35,1.02-0.83,1.2
				c0.1,0.18,0.16,0.39,0.16,0.62v0.32c0,0.71-0.57,1.28-1.28,1.28h-4.32l-2.31,0.03l-1.06-0.73l-0.9,0.02l-0.01-6.58l0.88-0.49
				l1.84-3.49c0.1-0.2,0.16-0.42,0.17-0.64l0.01-0.36c-0.01-0.13-0.09-1.09-0.08-1.22c0.09-0.73,0.45-1.11,0.91-1.25
				c0.55-0.17,1.14,0.03,1.5,0.48l0.29,0.37c0.09,0.11,0.16,0.24,0.19,0.38C390,498.01,390.44,500,389.87,501.89z"/>
			<path class="st8" d="M381.68,511.08h0.79c0.9,0,1.63-0.73,1.63-1.63v-5.4c0-0.9-0.73-1.63-1.63-1.63h-0.79
				c-0.9,0-1.63,0.73-1.63,1.63v5.4C380.05,510.35,380.78,511.08,381.68,511.08z"/>
			<line class="st8" x1="394.85" y1="504.43" x2="392.52" y2="504.43"/>
			<line class="st8" x1="394.44" y1="506.52" x2="392.44" y2="506.52"/>
			<line class="st8" x1="393.85" y1="508.64" x2="392.44" y2="508.64"/>
			<circle class="st9" cx="381.84" cy="508.89" r="0.69"/>
		</g>
		<path class="st5" d="M448.84,580c0,0,7.18,3.75,12.73-1.63l7.51,2.94l8-23.99c-3.92-0.98-4.41-5.55-4.41-5.55
			c0.16-20.4-10.45-29.54-10.45-29.54c-0.28-2.97-1.39-4.62-2.56-5.54c-1.47-1.16-3.95-1.11-4.78,0.57
			c-3.43,6.93,1.95,13.46,1.95,13.46c-1.31,3.92,0.49,6.53,0.49,6.53"/>
		<circle class="st7" cx="434.07" cy="569.84" r="2.2"/>
		<circle class="st10" cx="427.95" cy="507.28" r="0.73"/>
		<circle class="st8" cx="477.16" cy="582.38" r="1.37"/>
		<path class="st5" d="M479.05,589.14l-7.59-2.6c-2.07-0.71-3.17-2.96-2.46-5.03l7.92-23.11c0.71-2.07,2.96-3.17,5.03-2.46l7.59,2.6
			c2.07,0.71,3.17,2.96,2.46,5.03l-7.92,23.11C483.37,588.74,481.12,589.85,479.05,589.14z"/>
		<path class="st7" d="M432.52,536v5.31c0,0.12,0.12,0.19,0.22,0.15l5.55-2.37c0.12-0.05,0.13-0.23,0.01-0.29l-5.46-3
			C432.71,535.72,432.52,535.83,432.52,536z"/>
		<path class="st5" d="M442.55,484.78c5.64-2.62,9.56-8.33,9.56-14.96c0-9.1-7.38-16.49-16.49-16.49s-16.49,7.38-16.49,16.49
			c0,8.31,6.14,15.17,14.13,16.32l1.81,8.88c0.01,0.07,0.12,0.08,0.14,0.01l2.9-8.9"/>
		<path class="st5" d="M388.42,518.46c-5.39,0.25-10.68-2.57-13.34-7.67c-3.65-7-0.93-15.63,6.06-19.27
			c7-3.65,15.63-0.93,19.27,6.06c3.33,6.38,1.36,14.12-4.32,18.2l2.17,7.55c0.02,0.06-0.06,0.11-0.1,0.06l-5.8-5.68"/>
		<path class="st5" d="M484,518.24c5.64,2.53,12.47,1.75,17.45-2.56c6.83-5.92,7.57-16.26,1.64-23.1
			c-5.92-6.83-16.26-7.57-23.1-1.64c-6.23,5.4-7.39,14.48-3.05,21.22l-5.49,7.13c-0.04,0.06,0.02,0.14,0.08,0.11l8.57-3.62"/>
		<circle class="st8" cx="428.2" cy="469.82" r="1.96"/>
		<circle class="st8" cx="435.36" cy="469.61" r="1.96"/>
		<circle class="st8" cx="442.52" cy="469.79" r="1.96"/>
		<path class="st7" d="M490.69,512.55c0,0-6.27-3.59-8.81-7.6c-1.13-1.79-1.36-4.06-0.33-5.91c0.58-1.05,1.57-2.03,3.25-2.2
			c3.02-0.31,5.66,2.14,5.77,5.18c0,0.06,0,0.13,0.01,0.19"/>
		<path class="st7" d="M490.51,512.55c0,0,6.27-3.78,8.81-7.79c1.13-1.79,1.36-4.06,0.33-5.91c-0.58-1.05-1.57-2.03-3.25-2.2
			c-3.02-0.31-5.66,2.14-5.77,5.18c0,0.06,0,0.13-0.01,0.19"/>
	</g>
</g>
</svg>
