<?xml version="1.0" encoding="utf-8"?>
<!-- Generator: Adobe Illustrator 26.3.1, SVG Export Plug-In . SVG Version: 6.00 Build 0)  -->
<svg version="1.1" xmlns="http://www.w3.org/2000/svg" xmlns:xlink="http://www.w3.org/1999/xlink" x="0px" y="0px"
	 viewBox="0 0 10754.7 9590.19" style="enable-background:new 0 0 10754.7 9590.19;" xml:space="preserve">
<style type="text/css">
	.st0{display:none;}
	.st1{display:inline;}
	
		.st2{clip-path:url(#SVGID_00000149371086521775200020000007463499299916908687_);fill:url(#SVGID_00000029009162812575553130000004668346472993614743_);}
	.st3{display:inline;fill-rule:evenodd;clip-rule:evenodd;fill:#1D1D1B;}
	.st4{display:inline;fill-rule:evenodd;clip-rule:evenodd;fill:none;stroke:#FFFFFF;stroke-miterlimit:10;}
	.st5{fill-rule:evenodd;clip-rule:evenodd;fill:none;stroke:#FFFFFF;stroke-miterlimit:10;}
</style>
<g id="Layer_1" class="st0">
	<g class="st1">
		<g>
			<defs>
				<path id="SVGID_1_" d="M5879.39,4948.58l-11.84,3.36l-12.67,5.48l11.57-3.87L5879.39,4948.58z M5908.83,4937.27l-15.88,3.68
					l-17.14,7.42c5.29-1.5,10.57-3,15.85-4.5L5908.83,4937.27z M5929.24,4932.55l-12.1,2.8l-12.88,4.94l11.9-3.37L5929.24,4932.55z
					 M5942.07,4929.58l-0.68,0.16l-0.71,0.24L5942.07,4929.58z M5936.14,4926.8c-5.93,1.05-11.88,2.12-17.82,3.18
					c-6.43,2.78-12.88,5.57-19.32,8.36c5.94-1.38,11.87-2.75,17.8-4.12L5936.14,4926.8z M5958.24,4922.88l-15.96,2.83l-17.18,6.59
					c5.32-1.23,10.65-2.46,15.96-3.69L5958.24,4922.88z M5978.57,4919.27l-12.34,2.18l-13.04,4.35l12.18-2.8L5978.57,4919.27z
					 M5991.35,4917.02l-1.22,0.21l-1.24,0.35L5991.35,4917.02z M5962.53,4916.69c-6.24,0.77-12.49,1.54-18.75,2.31
					c-6.91,2.98-13.81,5.95-20.72,8.94c6.31-1.13,12.61-2.25,18.9-3.37L5962.53,4916.69z M5985.15,4913.9
					c-5.91,0.72-11.83,1.45-17.76,2.18l-19.3,7.39c5.94-1.06,11.89-2.11,17.82-3.16L5985.15,4913.9z M6007.04,4911.25l-15.99,1.94
					l-17.16,5.72c5.33-0.94,10.65-1.88,15.97-2.82L6007.04,4911.25z M6027.14,4908.81c-4.14,0.5-8.29,1-12.44,1.5l-13.23,3.72
					c4.14-0.73,8.28-1.46,12.41-2.19L6027.14,4908.81z M6040.15,4907.25l-1.86,0.22l-1.93,0.44L6040.15,4907.25z M5988.43,4906.77
					c-6.42,0.43-12.86,0.86-19.29,1.29l-21.49,9.27c6.49-0.8,12.97-1.6,19.45-2.39L5988.43,4906.77z M6011.17,4905.25
					c-6.22,0.41-12.48,0.84-18.74,1.25l-20.47,7.83c6.28-0.77,12.55-1.54,18.81-2.3L6011.17,4905.25z M6033.48,4903.8
					c-5.88,0.38-11.74,0.75-17.64,1.13l-19.18,6.38c5.94-0.72,11.87-1.45,17.8-2.16L6033.48,4903.8z M6055.03,4902.44l-15.93,1.01
					c-5.66,1.59-11.33,3.19-17,4.79l15.97-1.92C6043.73,4905.02,6049.38,4903.73,6055.03,4902.44z M6074.96,4901.18
					c-4.19,0.26-8.39,0.53-12.59,0.8l-13.1,2.99c4.18-0.5,8.34-0.99,12.51-1.49L6074.96,4901.18z M6088.09,4900.35l-2.35,0.15
					l-2.31,0.4L6088.09,4900.35z M6014.22,4896.9c-6.54,0.06-13.09,0.12-19.66,0.19c-7.39,3.18-14.79,6.38-22.18,9.57
					c6.6-0.44,13.21-0.89,19.79-1.33L6014.22,4896.9z M6036.76,4896.74c-6.39,0.05-12.77,0.09-19.16,0.14
					c-7.14,2.73-14.28,5.46-21.42,8.19c6.48-0.44,12.99-0.88,19.44-1.3L6036.76,4896.74z M6059.22,4896.57
					c-6.19,0.04-12.41,0.09-18.62,0.14l-20.3,6.75c6.22-0.4,12.39-0.78,18.6-1.18C6045.68,4900.37,6052.45,4898.47,6059.22,4896.57z
					 M6081.25,4896.46c-5.85,0.03-11.68,0.05-17.55,0.08c-6.4,1.8-12.78,3.58-19.19,5.38c5.9-0.37,11.79-0.75,17.67-1.12
					C6068.54,4899.36,6074.9,4897.9,6081.25,4896.46z M6102.56,4896.39l-15.91,0.05l-17.13,3.9c5.37-0.34,10.75-0.69,16.09-1.02
					C6091.27,4898.34,6096.91,4897.37,6102.56,4896.39z M6122.31,4896.33c-4.22,0.01-8.47,0.03-12.71,0.04l-13.22,2.29
					c4.13-0.25,8.23-0.49,12.36-0.74C6113.26,4897.39,6117.79,4896.86,6122.31,4896.33z M6135.98,4896.3c-1.06,0-2.12,0-3.18,0
					l-3.37,0.39L6135.98,4896.3z M6039.75,4887.15c-6.6-0.33-13.18-0.67-19.79-1l-22.6,9.73c6.69-0.07,13.34-0.12,20-0.18
					C6024.83,4892.85,6032.3,4889.99,6039.75,4887.15z M6062.23,4888.28c-6.49-0.34-13.03-0.66-19.56-0.98l-21.93,8.38
					c6.56-0.05,13.1-0.1,19.65-0.14L6062.23,4888.28z M6084.5,4889.48c-6.34-0.34-12.65-0.7-19-1.04
					c-7.08,2.35-14.18,4.71-21.26,7.06c6.44-0.05,12.9-0.11,19.31-0.14C6070.52,4893.4,6077.52,4891.43,6084.5,4889.48z
					 M6106.57,4890.7c-6.14-0.34-12.28-0.69-18.43-1.02c-6.7,1.88-13.42,3.77-20.13,5.65c6.18-0.03,12.31-0.04,18.49-0.07
					C6093.2,4893.74,6099.89,4892.22,6106.57,4890.7z M6128.48,4891.91c-5.84-0.34-11.74-0.65-17.62-0.98l-18.95,4.31
					c5.87-0.02,11.73-0.04,17.59-0.06C6115.83,4894.1,6122.16,4893,6128.48,4891.91z M6149.4,4893.18
					c-5.27-0.31-10.52-0.64-15.78-0.95l-17.09,2.94c5.4-0.02,10.82-0.04,16.18-0.05C6138.28,4894.47,6143.85,4893.82,6149.4,4893.18
					z M6168.9,4894.36c-4.24-0.26-8.49-0.52-12.75-0.77c-4.43,0.51-8.87,1.03-13.3,1.54c4.18,0.01,8.37,0.01,12.57,0.01
					C6159.91,4894.88,6164.42,4894.61,6168.9,4894.36z M6182.36,4895.17c-1.1-0.07-2.21-0.13-3.32-0.2l-3.45,0.19
					C6177.85,4895.17,6180.11,4895.17,6182.36,4895.17z M6065.24,4877.42c-6.61-0.73-13.18-1.49-19.8-2.22
					c-7.67,3.3-15.33,6.59-23.01,9.89c6.69,0.33,13.37,0.67,20.06,1.01L6065.24,4877.42z M6087.45,4879.91
					c-6.54-0.74-13.09-1.48-19.65-2.21c-7.46,2.85-14.92,5.69-22.39,8.54c6.65,0.33,13.31,0.65,19.92,1
					C6072.71,4884.8,6080.08,4882.36,6087.45,4879.91z M6109.63,4882.44c-6.43-0.75-12.91-1.48-19.37-2.21
					c-7.23,2.39-14.44,4.78-21.68,7.18c6.5,0.35,12.95,0.72,19.43,1.08C6095.23,4886.47,6102.43,4884.45,6109.63,4882.44z
					 M6131.54,4885.04c-6.28-0.74-12.54-1.49-18.83-2.23c-7.02,1.96-14.02,3.92-21.04,5.89c6.37,0.35,12.75,0.7,19.1,1.06
					C6117.69,4888.17,6124.62,4886.6,6131.54,4885.04z M6153.41,4887.63c-6.09-0.73-12.23-1.46-18.36-2.18
					c-6.67,1.51-13.33,3.02-20.01,4.53c6.19,0.35,12.38,0.69,18.53,1.05C6140.19,4889.9,6146.8,4888.76,6153.41,4887.63z
					 M6174.84,4890.25c-5.77-0.71-11.52-1.43-17.31-2.13c-6.26,1.07-12.54,2.15-18.81,3.23c5.81,0.35,11.61,0.7,17.42,1.05
					C6162.38,4891.68,6168.61,4890.96,6174.84,4890.25z M6195.75,4892.86c-5.31-0.67-10.63-1.33-15.96-1.99
					c-5.62,0.65-11.26,1.29-16.89,1.94c5.4,0.32,10.8,0.64,16.17,0.98C6184.64,4893.47,6190.18,4893.17,6195.75,4892.86z
					 M6215.25,4895.29c-4.3-0.55-8.63-1.08-12.96-1.62c-4.38,0.24-8.75,0.49-13.14,0.73c4.14,0.26,8.22,0.54,12.36,0.81
					C6206.11,4895.23,6210.66,4895.27,6215.25,4895.29z M6228.15,4896.96c-1.14-0.15-2.27-0.3-3.4-0.44l-3.68-0.02
					C6223.43,4896.65,6225.8,4896.8,6228.15,4896.96z M6090.65,4867.72c-6.6-1.15-13.26-2.28-19.89-3.41
					c-7.7,3.31-15.41,6.63-23.12,9.94c6.7,0.74,13.33,1.5,20.01,2.25C6075.32,4873.57,6082.99,4870.64,6090.65,4867.72z
					 M6112.62,4871.57c-6.54-1.16-13.11-2.31-19.68-3.46c-7.57,2.88-15.16,5.78-22.73,8.67c6.65,0.74,13.3,1.49,19.92,2.24
					C6097.63,4876.54,6105.13,4874.05,6112.62,4871.57z M6134.49,4875.48c-6.47-1.16-12.94-2.32-19.43-3.48
					c-7.37,2.44-14.75,4.89-22.12,7.33c6.58,0.75,13.14,1.5,19.68,2.26C6119.91,4879.56,6127.21,4877.52,6134.49,4875.48z
					 M6156.4,4879.41c-6.37-1.17-12.83-2.3-19.25-3.45c-7.14,2-14.31,4.01-21.46,6.01c6.45,0.76,12.86,1.52,19.3,2.29
					C6142.13,4882.64,6149.27,4881.02,6156.4,4879.41z M6177.98,4883.42c-6.22-1.16-12.4-2.32-18.63-3.47
					c-6.94,1.57-13.9,3.15-20.85,4.72c6.34,0.75,12.7,1.49,19,2.25C6164.34,4885.75,6171.16,4884.59,6177.98,4883.42z
					 M6199.49,4887.43c-6.03-1.14-12.1-2.26-18.17-3.39c-6.57,1.12-13.13,2.24-19.71,3.37c6.08,0.75,12.11,1.52,18.18,2.27
					C6186.38,4888.92,6192.94,4888.18,6199.49,4887.43z M6220.75,4891.46c-5.75-1.1-11.52-2.2-17.3-3.29
					c-6.23,0.71-12.45,1.41-18.69,2.13c5.87,0.73,11.74,1.45,17.58,2.19C6208.47,4892.15,6214.63,4891.79,6220.75,4891.46z
					 M6241.21,4895.42c-5.24-1.02-10.48-2.03-15.73-3.05c-5.51,0.3-11.07,0.62-16.6,0.93c5.34,0.67,10.66,1.35,15.97,2.04
					C6230.31,4895.36,6235.77,4895.39,6241.21,4895.42z M6260.4,4899.14c-4.29-0.84-8.62-1.67-12.94-2.51
					c-4.39-0.03-8.81-0.04-13.21-0.07c4.07,0.53,8.14,1.06,12.21,1.6C6251.14,4898.48,6255.74,4898.82,6260.4,4899.14z
					 M6272.95,4901.62c-1.06-0.21-2.1-0.43-3.16-0.63l-3.68-0.26C6268.39,4901.02,6270.69,4901.32,6272.95,4901.62z
					 M6116.04,4858.05c-6.59-1.57-13.23-3.12-19.88-4.67c-7.79,3.34-15.61,6.71-23.41,10.07c6.7,1.15,13.42,2.28,20.07,3.44
					C6100.57,4863.94,6108.3,4861,6116.04,4858.05z M6137.67,4863.28c-6.54-1.58-13.04-3.17-19.6-4.74
					c-7.65,2.91-15.3,5.82-22.96,8.74c6.64,1.16,13.25,2.33,19.86,3.5C6122.55,4868.28,6130.11,4865.79,6137.67,4863.28z
					 M6159.39,4868.54c-6.48-1.59-13.02-3.15-19.54-4.73c-7.47,2.47-14.94,4.94-22.43,7.42c6.58,1.17,13.14,2.35,19.69,3.53
					C6144.55,4872.67,6151.96,4870.61,6159.39,4868.54z M6180.92,4873.88c-6.39-1.59-12.76-3.19-19.18-4.77
					c-7.32,2.04-14.63,4.08-21.96,6.13c6.53,1.17,13.08,2.33,19.56,3.51C6166.54,4877.11,6173.73,4875.5,6180.92,4873.88z
					 M6202.39,4879.26c-6.3-1.59-12.6-3.17-18.93-4.75c-7.07,1.59-14.12,3.18-21.2,4.78c6.38,1.18,12.71,2.37,19.08,3.56
					C6188.37,4881.65,6195.39,4880.45,6202.39,4879.26z M6223.85,4884.67c-6.17-1.58-12.4-3.14-18.61-4.7
					c-6.84,1.16-13.69,2.33-20.54,3.5c6.28,1.17,12.57,2.33,18.81,3.51C6210.29,4886.21,6217.08,4885.44,6223.85,4884.67z
					 M6244.92,4890.14c-5.97-1.55-11.91-3.1-17.89-4.64c-6.52,0.73-13.05,1.47-19.58,2.21c6.06,1.15,12.08,2.31,18.12,3.47
					C6232.03,4890.84,6238.48,4890.49,6244.92,4890.14z M6265.87,4895.58c-5.69-1.5-11.43-2.97-17.16-4.45
					c-6.14,0.33-12.25,0.64-18.4,0.98c5.77,1.11,11.54,2.23,17.29,3.35C6253.69,4895.5,6259.79,4895.53,6265.87,4895.58z
					 M6286.09,4900.95c-5.18-1.38-10.32-2.77-15.52-4.14c-5.58-0.05-11.14-0.1-16.73-0.14c5.39,1.05,10.77,2.09,16.12,3.15
					C6275.35,4900.19,6280.73,4900.56,6286.09,4900.95z M6304.8,4905.97c-4.23-1.14-8.48-2.28-12.72-3.41
					c-4.33-0.31-8.7-0.61-13.05-0.92c4.2,0.85,8.41,1.69,12.61,2.54C6296.04,4904.77,6300.41,4905.37,6304.8,4905.97z
					 M6317.38,4909.34c-1.17-0.32-2.35-0.63-3.53-0.95c-1.23-0.17-2.47-0.33-3.7-0.5
					C6312.55,4908.37,6314.98,4908.85,6317.38,4909.34z M6141.3,4848.43c-6.55-1.99-13.09-3.99-19.68-5.96
					c-7.88,3.38-15.73,6.74-23.62,10.13c6.69,1.56,13.36,3.13,20,4.71C6125.76,4854.35,6133.54,4851.39,6141.3,4848.43z
					 M6162.71,4855.01c-6.52-2-13.03-4.01-19.57-6.01l-23.12,8.8c6.62,1.59,13.18,3.19,19.77,4.78
					C6147.44,4860.05,6155.08,4857.53,6162.71,4855.01z M6184.19,4861.62c-6.47-2.02-13.01-4.01-19.53-6.01
					c-7.55,2.49-15.12,5-22.69,7.5c6.6,1.59,13.21,3.17,19.76,4.78C6169.22,4865.8,6176.72,4863.7,6184.19,4861.62z
					 M6205.41,4868.36c-6.4-2.02-12.75-4.07-19.16-6.09c-7.37,2.05-14.78,4.12-22.16,6.18c6.5,1.6,12.93,3.23,19.41,4.85
					C6190.79,4871.65,6198.11,4870,6205.41,4868.36z M6226.72,4875.13c-6.33-2.03-12.71-4.04-19.09-6.06
					c-7.19,1.62-14.4,3.24-21.61,4.87c6.44,1.6,12.86,3.22,19.27,4.83C6212.45,4877.55,6219.59,4876.34,6226.72,4875.13z
					 M6247.85,4881.97c-6.22-2.02-12.42-4.05-18.67-6.06c-7,1.19-14.02,2.38-21.04,3.57c6.35,1.6,12.69,3.21,19,4.82
					C6234.04,4883.52,6240.95,4882.74,6247.85,4881.97z M6268.91,4888.89c-6.11-2.01-12.23-4.02-18.37-6.03
					c-6.72,0.75-13.48,1.51-20.22,2.27c6.19,1.6,12.35,3.21,18.52,4.81C6255.55,4889.58,6262.22,4889.24,6268.91,4888.89z
					 M6289.9,4895.81c-5.92-1.98-11.91-3.94-17.88-5.9c-6.46,0.34-12.91,0.67-19.39,1.01c6.05,1.57,12.13,3.13,18.13,4.71
					C6277.16,4895.68,6283.52,4895.75,6289.9,4895.81z M6310.18,4902.68c-5.57-1.88-11.12-3.78-16.7-5.66
					c-6.03-0.06-12.05-0.12-18.09-0.17c5.65,1.5,11.25,3.03,16.9,4.53C6298.25,4901.81,6304.23,4902.24,6310.18,4902.68z
					 M6330.15,4909.44c-5.13-1.76-10.31-3.5-15.48-5.24c-5.47-0.41-10.92-0.81-16.41-1.21c5.29,1.41,10.57,2.83,15.83,4.25
					C6319.44,4907.97,6324.83,4908.7,6330.15,4909.44z M6348.77,4915.86c-4.19-1.45-8.34-2.91-12.54-4.36
					c-4.36-0.61-8.71-1.23-13.09-1.84c4.27,1.16,8.49,2.34,12.74,3.51C6340.19,4914.07,6344.48,4914.96,6348.77,4915.86z
					 M6361.07,4920.15l-3.74-1.31l-3.92-0.81C6355.96,4918.74,6358.52,4919.45,6361.07,4920.15z M6166.55,4838.83
					c-6.51-2.42-12.97-4.86-19.51-7.26c-7.91,3.39-15.81,6.78-23.73,10.17c6.63,1.99,13.19,4,19.78,6.01L6166.55,4838.83z
					 M6187.71,4846.75c-6.48-2.44-12.97-4.87-19.48-7.3l-23.29,8.86c6.59,2.01,13.15,4.03,19.71,6.05L6187.71,4846.75z
					 M6208.88,4854.75c-6.43-2.46-12.92-4.9-19.41-7.33c-7.62,2.51-15.24,5.03-22.87,7.55c6.57,2.02,13.15,4.03,19.67,6.07
					C6193.82,4858.94,6201.35,4856.85,6208.88,4854.75z M6229.85,4862.87c-6.38-2.47-12.72-4.95-19.13-7.41
					c-7.47,2.07-14.92,4.14-22.4,6.23c6.49,2.04,12.91,4.1,19.37,6.15C6215.1,4866.18,6222.47,4864.53,6229.85,4862.87z
					 M6250.94,4871.04c-6.33-2.48-12.73-4.94-19.11-7.4c-7.3,1.64-14.59,3.27-21.9,4.91c6.46,2.05,12.93,4.08,19.34,6.14
					C6236.51,4873.47,6243.73,4872.25,6250.94,4871.04z M6271.77,4879.31c-6.23-2.48-12.42-4.97-18.68-7.44
					c-7.12,1.2-14.23,2.4-21.37,3.61c6.35,2.05,12.63,4.12,18.95,6.18C6257.72,4880.87,6264.74,4880.09,6271.77,4879.31z
					 M6292.62,4887.65c-6.15-2.48-12.34-4.95-18.53-7.41c-6.9,0.77-13.8,1.53-20.72,2.31c6.29,2.05,12.56,4.11,18.81,6.17
					C6278.99,4888.36,6285.84,4887.99,6292.62,4887.65z M6313.36,4896.02c-6.02-2.45-12.06-4.9-18.12-7.33
					c-6.62,0.34-13.31,0.7-19.95,1.04c6.15,2.03,12.3,4.06,18.4,6.11C6300.24,4895.9,6306.83,4895.95,6313.36,4896.02z
					 M6333.79,4904.45c-5.83-2.41-11.65-4.82-17.51-7.22c-6.31-0.07-12.69-0.12-19.02-0.18c5.9,1.99,11.77,3.98,17.65,5.98
					C6321.23,4903.5,6327.5,4903.98,6333.79,4904.45z M6354.2,4912.87c-5.59-2.34-11.25-4.65-16.9-6.97
					c-5.96-0.45-11.92-0.9-17.9-1.35c5.71,1.93,11.44,3.85,17.1,5.79C6342.44,4911.18,6348.31,4912.03,6354.2,4912.87z
					 M6373.38,4920.99c-4.96-2.1-9.88-4.21-14.85-6.31c-5.38-0.77-10.75-1.54-16.14-2.3c5.1,1.77,10.16,3.56,15.26,5.33
					C6362.88,4918.81,6368.17,4919.89,6373.38,4920.99z M6391.7,4928.77c-4.17-1.78-8.36-3.56-12.55-5.33
					c-4.31-0.91-8.62-1.83-12.94-2.74c4.15,1.45,8.32,2.89,12.45,4.35C6383.03,4926.28,6387.33,4927.54,6391.7,4928.77z
					 M6404.85,4934.36c-1.42-0.61-2.87-1.22-4.31-1.83l-3.8-1.09C6399.45,4932.41,6402.13,4933.39,6404.85,4934.36z
					 M6191.79,4829.24c-6.46-2.85-12.86-5.72-19.36-8.56c-7.92,3.39-15.87,6.8-23.8,10.2c6.57,2.42,13.06,4.87,19.6,7.31
					L6191.79,4829.24z M6212.67,4838.52c-6.43-2.87-12.87-5.74-19.34-8.6l-23.42,8.9c6.55,2.44,13.09,4.89,19.6,7.34
					C6197.23,4843.61,6204.95,4841.06,6212.67,4838.52z M6233.55,4847.9c-6.39-2.9-12.83-5.78-19.28-8.66l-23,7.58
					c6.53,2.46,13.05,4.92,19.52,7.4C6218.38,4852.11,6225.98,4850,6233.55,4847.9z M6254.24,4857.41
					c-6.35-2.91-12.66-5.84-19.03-8.74c-7.51,2.08-15.05,4.18-22.57,6.27c6.46,2.48,12.86,4.98,19.3,7.47
					C6239.38,4860.74,6246.82,4859.07,6254.24,4857.41z M6275.06,4866.97c-6.3-2.93-12.69-5.84-19.05-8.75
					c-7.36,1.65-14.73,3.3-22.1,4.95c6.45,2.49,12.93,4.97,19.32,7.48C6260.51,4869.42,6267.8,4868.19,6275.06,4866.97z
					 M6295.62,4876.67c-6.23-2.94-12.4-5.89-18.65-8.82c-7.18,1.2-14.38,2.42-21.59,3.63c6.34,2.5,12.58,5.03,18.89,7.55
					C6281.4,4878.24,6288.51,4877.46,6295.62,4876.67z M6316.23,4886.45c-6.17-2.95-12.37-5.88-18.58-8.82
					c-7.01,0.77-14.02,1.54-21.05,2.32c6.3,2.51,12.6,5.02,18.85,7.54C6302.39,4887.15,6309.31,4886.8,6316.23,4886.45z
					 M6336.75,4896.31c-6.07-2.94-12.16-5.86-18.27-8.79c-6.8,0.34-13.59,0.67-20.42,1.02c6.18,2.5,12.34,5,18.48,7.51
					C6323.31,4896.13,6330.01,4896.22,6336.75,4896.31z M6356.94,4906.19c-5.9-2.89-11.79-5.79-17.71-8.67
					c-6.6-0.08-13.14-0.19-19.76-0.26c6.06,2.49,12.1,4.98,18.13,7.48C6344.04,4905.23,6350.53,4905.7,6356.94,4906.19z
					 M6377.31,4916.16c-5.78-2.87-11.66-5.72-17.51-8.57c-6.19-0.48-12.47-0.93-18.69-1.41c5.93,2.45,11.88,4.89,17.76,7.35
					C6365.02,4914.41,6371.2,4915.28,6377.31,4916.16z M6396.98,4926.07c-5.46-2.74-10.87-5.5-16.34-8.24
					c-5.81-0.84-11.7-1.66-17.54-2.5c5.49,2.33,10.95,4.66,16.43,6.99C6385.37,4923.56,6391.16,4924.82,6396.98,4926.07z
					 M6416.25,4935.79c-5-2.54-10.05-5.08-15.08-7.61c-5.28-1.14-10.56-2.28-15.86-3.42c5.23,2.21,10.47,4.43,15.66,6.65
					C6406.05,4932.87,6411.17,4934.33,6416.25,4935.79z M6433.95,4944.83c-4.02-2.07-8.03-4.14-12.07-6.2
					c-4.1-1.19-8.26-2.36-12.37-3.54c4.07,1.77,8.09,3.55,12.15,5.31C6425.74,4941.88,6429.88,4943.35,6433.95,4944.83z
					 M6445.63,4950.9l-3.54-1.84c-1.43-0.52-2.83-1.05-4.27-1.58C6440.42,4948.62,6443.04,4949.75,6445.63,4950.9z M6217.02,4819.67
					c-6.4-3.28-12.76-6.58-19.2-9.85l-23.88,10.22c6.52,2.85,12.94,5.74,19.43,8.61L6217.02,4819.67z M6237.6,4830.31
					c-6.37-3.31-12.75-6.62-19.17-9.92l-23.53,8.93c6.5,2.87,12.99,5.76,19.44,8.65L6237.6,4830.31z M6258.21,4841.06
					c-6.34-3.34-12.75-6.66-19.15-9.99l-23.11,7.61c6.48,2.9,12.94,5.8,19.37,8.72C6242.97,4845.28,6250.59,4843.17,6258.21,4841.06
					z M6278.6,4851.97c-6.3-3.36-12.55-6.75-18.88-10.1c-7.57,2.1-15.14,4.19-22.74,6.3c6.42,2.93,12.78,5.88,19.17,8.81
					C6263.65,4855.3,6271.13,4853.63,6278.6,4851.97z M6299.12,4862.95c-6.26-3.39-12.61-6.76-18.93-10.13
					c-7.41,1.65-14.83,3.31-22.26,4.97c6.42,2.94,12.87,5.87,19.22,8.84C6284.49,4865.39,6291.81,4864.17,6299.12,4862.95z
					 M6319.41,4874.06c-6.2-3.4-12.35-6.82-18.58-10.21c-7.25,1.21-14.5,2.43-21.77,3.65c6.32,2.96,12.53,5.96,18.82,8.93
					C6305.06,4875.64,6312.24,4874.85,6319.41,4874.06z M6339.75,4885.3c-6.16-3.42-12.35-6.84-18.55-10.25
					c-7.09,0.77-14.19,1.55-21.3,2.33c6.3,2.97,12.59,5.95,18.84,8.94C6325.77,4885.98,6332.75,4885.65,6339.75,4885.3z
					 M6360.02,4896.62c-6.07-3.42-12.18-6.83-18.31-10.23c-6.9,0.34-13.79,0.67-20.71,1.01c6.21,2.97,12.38,5.96,18.54,8.95
					C6346.38,4896.43,6353.2,4896.53,6360.02,4896.62z M6380.02,4908.02c-5.96-3.4-11.89-6.8-17.88-10.19
					c-6.69-0.1-13.41-0.19-20.13-0.27c6.06,2.95,12.1,5.91,18.13,8.87C6366.8,4906.95,6373.38,4907.5,6380.02,4908.02z
					 M6400.19,4919.52c-5.86-3.39-11.83-6.75-17.76-10.12c-6.48-0.52-12.9-1.05-19.4-1.55c6.01,2.94,12.04,5.88,17.99,8.84
					C6387.45,4917.62,6393.8,4918.58,6400.19,4919.52z M6419.69,4930.96c-5.59-3.27-11.12-6.56-16.72-9.83
					c-6.21-0.92-12.37-1.85-18.61-2.76c5.77,2.89,11.48,5.8,17.23,8.69C6407.62,4928.36,6413.69,4929.65,6419.69,4930.96z
					 M6439.27,4942.47c-5.41-3.21-10.88-6.41-16.34-9.6c-5.69-1.24-11.46-2.46-17.17-3.7c5.54,2.78,11.09,5.56,16.57,8.36
					C6428.01,4939.17,6433.63,4940.82,6439.27,4942.47z M6458.2,4953.76c-4.9-2.94-9.79-5.89-14.73-8.82
					c-5.2-1.52-10.33-3.06-15.55-4.57c4.92,2.54,9.78,5.09,14.69,7.63C6447.85,4949.91,6453,4951.84,6458.2,4953.76z
					 M6475.44,4964.2c-3.95-2.4-7.92-4.8-11.88-7.19c-4.16-1.54-8.31-3.08-12.49-4.62c4.09,2.12,8.2,4.24,12.26,6.37
					C6467.39,4960.56,6471.4,4962.38,6475.44,4964.2z M6487.47,4971.48c-1.21-0.74-2.44-1.48-3.66-2.22l-3.1-1.39
					C6482.98,4969.07,6485.21,4970.28,6487.47,4971.48z M6242.24,4810.11c-6.33-3.72-12.65-7.44-19.03-11.14
					c-7.99,3.41-15.96,6.81-23.95,10.23c6.46,3.28,12.83,6.6,19.26,9.9C6226.43,4816.09,6234.34,4813.1,6242.24,4810.11z
					 M6262.5,4822.12c-6.31-3.75-12.61-7.51-18.96-11.25l-23.62,8.95c6.44,3.31,12.85,6.64,19.25,9.97
					C6246.96,4827.23,6254.73,4824.68,6262.5,4822.12z M6282.86,4834.23c-6.28-3.79-12.66-7.54-19.01-11.31l-23.2,7.63
					c6.43,3.34,12.86,6.68,19.23,10.05C6267.54,4838.48,6275.21,4836.35,6282.86,4834.23z M6302.93,4846.54
					c-6.24-3.82-12.41-7.66-18.69-11.47c-7.61,2.1-15.23,4.22-22.85,6.33c6.37,3.38,12.66,6.78,19,10.16
					C6287.91,4849.89,6295.42,4848.21,6302.93,4846.54z M6323.13,4858.94c-6.21-3.85-12.49-7.68-18.76-11.51
					c-7.46,1.66-14.92,3.32-22.4,4.99c6.37,3.4,12.77,6.79,19.07,10.2C6308.42,4861.39,6315.78,4860.17,6323.13,4858.94z
					 M6343.16,4871.48c-6.16-3.87-12.29-7.75-18.5-11.6c-7.3,1.21-14.6,2.43-21.92,3.65c6.28,3.42,12.47,6.88,18.72,10.31
					C6328.71,4873.05,6335.94,4872.26,6343.16,4871.48z M6363.15,4884.16c-6.11-3.9-12.24-7.79-18.4-11.67
					c-7.15,0.77-14.32,1.55-21.5,2.34c6.27,3.45,12.53,6.9,18.75,10.36C6349.05,4884.85,6356.14,4884.5,6363.15,4884.16z
					 M6383.17,4896.94c-6.05-3.91-12.18-7.79-18.29-11.68c-6.94,0.33-13.94,0.68-20.91,1.02c6.19,3.45,12.36,6.91,18.51,10.38
					C6369.37,4896.75,6376.31,4896.83,6383.17,4896.94z M6402.9,4909.85c-5.96-3.9-11.88-7.81-17.87-11.7
					c-6.78-0.11-13.62-0.19-20.43-0.29c6.1,3.45,12.15,6.92,18.22,10.39C6389.52,4908.78,6396.22,4909.31,6402.9,4909.85z
					 M6422.79,4922.88c-5.89-3.91-11.88-7.79-17.83-11.68c-6.55-0.53-13.15-1.05-19.73-1.58c6.06,3.45,12.16,6.9,18.16,10.38
					C6409.87,4920.96,6416.35,4921.91,6422.79,4922.88z M6442.24,4935.94c-5.71-3.84-11.35-7.69-17.1-11.52
					c-6.32-0.95-12.68-1.88-19.03-2.82c5.79,3.38,11.52,6.78,17.29,10.16C6429.72,4933.14,6435.95,4934.55,6442.24,4935.94z
					 M6461.67,4949.06c-5.55-3.78-11.15-7.55-16.75-11.32c-6.08-1.35-12.11-2.71-18.22-4.05c5.78,3.38,11.57,6.76,17.29,10.16
					C6449.89,4945.59,6455.79,4947.32,6461.67,4949.06z M6480.72,4962.1c-5.25-3.62-10.52-7.24-15.81-10.85
					c-5.55-1.65-11.14-3.28-16.72-4.92c5.35,3.2,10.61,6.42,15.93,9.62C6469.65,4958,6475.22,4960.04,6480.72,4962.1z
					 M6498.89,4974.75c-4.76-3.32-9.53-6.65-14.31-9.96c-5-1.87-10.08-3.73-15.11-5.59c4.99,3.01,9.97,6.02,14.92,9.03
					C6489.22,4970.4,6494.1,4972.57,6498.89,4974.75z M6516.36,4986.91c-3.98-2.81-8.03-5.6-12.06-8.4
					c-3.83-1.75-7.7-3.48-11.54-5.22c4.04,2.48,8.02,4.96,12.03,7.44C6508.64,4982.8,6512.54,4984.85,6516.36,4986.91z
					 M6527.7,4995.01c-1.15-0.82-2.29-1.64-3.43-2.46c-1.45-0.79-2.86-1.58-4.31-2.37
					C6522.53,4991.79,6525.13,4993.4,6527.7,4995.01z M6267.46,4800.55c-6.26-4.15-12.55-8.3-18.88-12.43
					c-7.99,3.41-16,6.83-24,10.25c6.4,3.71,12.73,7.45,19.08,11.19C6251.6,4806.56,6259.53,4803.55,6267.46,4800.55z
					 M6287.39,4813.95c-6.25-4.19-12.45-8.4-18.73-12.59c-7.89,2.98-15.79,5.98-23.69,8.97c6.37,3.75,12.7,7.53,19.04,11.29
					C6271.8,4819.07,6279.61,4816.5,6287.39,4813.95z M6307.47,4827.44c-6.21-4.24-12.55-8.44-18.83-12.65
					c-7.75,2.54-15.51,5.1-23.28,7.65c6.37,3.78,12.77,7.56,19.08,11.37C6292.12,4831.67,6299.79,4829.56,6307.47,4827.44z
					 M6327.23,4841.14c-6.17-4.27-12.26-8.57-18.47-12.83c-7.65,2.11-15.29,4.22-22.95,6.34c6.31,3.83,12.52,7.69,18.79,11.53
					C6312.15,4844.49,6319.7,4842.81,6327.23,4841.14z M6347.1,4854.96c-6.15-4.31-12.35-8.61-18.55-12.9c-7.48,1.66-15,3.33-22.5,5
					c6.3,3.86,12.63,7.71,18.88,11.58C6332.32,4857.41,6339.72,4856.18,6347.1,4854.96z M6366.89,4868.93
					c-6.11-4.34-12.24-8.68-18.4-13.01c-7.33,1.21-14.68,2.44-22.03,3.66c6.24,3.88,12.41,7.79,18.6,11.69
					C6352.35,4870.49,6359.62,4869.71,6366.89,4868.93z M6386.54,4883.07c-6.06-4.37-12.11-8.75-18.21-13.1
					c-7.22,0.77-14.43,1.55-21.67,2.33c6.21,3.92,12.4,7.84,18.57,11.77C6372.34,4883.72,6379.44,4883.4,6386.54,4883.07z
					 M6406.36,4897.34c-6.03-4.41-12.18-8.78-18.28-13.16c-7.04,0.32-14.06,0.65-21.13,0.98c6.17,3.94,12.35,7.87,18.46,11.82
					C6392.43,4897.09,6399.37,4897.22,6406.36,4897.34z M6425.7,4911.72c-5.92-4.39-11.77-8.79-17.72-13.17
					c-6.91-0.12-13.78-0.25-20.72-0.36c6.07,3.94,12.08,7.91,18.12,11.86C6412.16,4910.6,6418.94,4911.16,6425.7,4911.72z
					 M6445.25,4926.26c-5.87-4.41-11.82-8.81-17.76-13.2c-6.67-0.56-13.35-1.11-20.06-1.66c6.06,3.96,12.17,7.91,18.17,11.89
					C6432.17,4924.28,6438.72,4925.27,6445.25,4926.26z M6464.53,4940.89c-5.74-4.38-11.46-8.76-17.25-13.13
					c-6.44-0.98-12.88-1.96-19.35-2.94c5.87,3.92,11.64,7.88,17.49,11.81C6451.79,4938.06,6458.18,4939.47,6464.53,4940.89z
					 M6483.67,4955.59c-5.62-4.34-11.26-8.67-16.92-12.99c-6.19-1.39-12.44-2.77-18.66-4.15c5.8,3.9,11.61,7.8,17.35,11.72
					C6471.53,4951.98,6477.62,4953.78,6483.67,4955.59z M6502.84,4970.44c-5.47-4.28-10.99-8.55-16.52-12.81
					c-5.87-1.76-11.74-3.52-17.65-5.27c5.53,3.79,11,7.58,16.49,11.38C6491.1,4965.96,6496.94,4968.21,6502.84,4970.44z
					 M6521.29,4985.06c-5.12-4.06-10.24-8.13-15.38-12.19c-5.61-2.13-11.16-4.27-16.8-6.39c5.29,3.67,10.56,7.33,15.81,11.01
					C6510.42,4980.01,6515.83,4982.54,6521.29,4985.06z M6539.75,4999.69c-4.78-3.84-9.65-7.66-14.5-11.49
					c-4.92-2.27-9.8-4.55-14.74-6.82c4.83,3.38,9.63,6.77,14.41,10.16C6529.9,4994.25,6534.8,4996.98,6539.75,4999.69z
					 M6555.94,5012.86c-3.66-2.97-7.27-5.96-10.93-8.93c-4-2.2-8-4.4-12.02-6.6c3.58,2.57,7.17,5.14,10.75,7.71
					C6547.84,5007.64,6551.86,5010.26,6555.94,5012.86z M6565.84,5020.95l-1.88-1.53l-1.73-1.11
					C6563.45,5019.19,6564.63,5020.07,6565.84,5020.95z M6292.68,4791.01c-6.18-4.59-12.46-9.16-18.74-13.72
					c-7.99,3.41-16.03,6.85-24.03,10.27c6.34,4.15,12.65,8.31,18.92,12.47C6276.79,4797.02,6284.73,4794.02,6292.68,4791.01z
					 M6312.27,4805.79c-6.17-4.64-12.27-9.3-18.48-13.93c-7.92,2.99-15.83,5.98-23.76,8.99c6.3,4.2,12.53,8.42,18.8,12.63
					C6296.66,4810.9,6304.46,4808.35,6312.27,4805.79z M6332.01,4820.66c-6.14-4.69-12.38-9.34-18.58-14.01
					c-7.78,2.55-15.55,5.1-23.35,7.65c6.31,4.23,12.68,8.45,18.91,12.71C6316.67,4824.9,6324.35,4822.78,6332.01,4820.66z
					 M6351.54,4835.75c-6.11-4.73-12.18-9.48-18.34-14.19c-7.63,2.1-15.28,4.21-22.92,6.32c6.24,4.28,12.34,8.61,18.55,12.9
					C6336.41,4839.1,6343.97,4837.43,6351.54,4835.75z M6371.05,4851c-6.08-4.78-12.17-9.54-18.31-14.3
					c-7.53,1.67-15.05,3.33-22.6,5c6.24,4.32,12.48,8.64,18.66,12.97C6356.23,4853.44,6363.64,4852.22,6371.05,4851z M6390.6,4866.4
					c-6.04-4.82-12.17-9.62-18.29-14.41c-7.37,1.21-14.74,2.43-22.13,3.66c6.2,4.35,12.35,8.72,18.49,13.1
					C6375.99,4867.95,6383.3,4867.18,6390.6,4866.4z M6409.9,4882.01c-6-4.85-11.96-9.72-18-14.56c-7.25,0.77-14.51,1.55-21.79,2.32
					c6.15,4.39,12.26,8.8,18.36,13.21C6395.63,4882.65,6402.76,4882.33,6409.9,4882.01z M6429.35,4897.74
					c-5.96-4.89-12.04-9.75-18.07-14.61c-7.08,0.32-14.16,0.64-21.27,0.96c6.14,4.43,12.33,8.84,18.4,13.29
					C6415.39,4897.5,6422.39,4897.61,6429.35,4897.74z M6448.47,4913.65c-5.89-4.9-11.7-9.82-17.63-14.7
					c-6.91-0.13-13.87-0.24-20.8-0.36c6.02,4.43,11.94,8.89,17.92,13.33C6434.82,4912.48,6441.64,4913.07,6448.47,4913.65z
					 M6467.66,4929.71c-5.83-4.92-11.72-9.84-17.62-14.74c-6.76-0.58-13.51-1.15-20.29-1.72c6.02,4.46,12.07,8.92,18.02,13.4
					C6454.43,4927.67,6461.04,4928.69,6467.66,4929.71z M6486.72,4945.9c-5.74-4.92-11.51-9.83-17.31-14.73
					c-6.52-1.01-13.05-2.02-19.61-3.02c5.87,4.44,11.66,8.9,17.49,13.35C6473.79,4942.97,6480.26,4944.44,6486.72,4945.9z
					 M6505.59,4962.23c-5.64-4.9-11.27-9.79-16.96-14.67c-6.36-1.45-12.72-2.9-19.12-4.34c5.82,4.45,11.63,8.9,17.4,13.36
					C6493.17,4958.45,6499.37,4960.34,6505.59,4962.23z M6524.57,4978.71c-5.54-4.88-11.18-9.72-16.79-14.58
					c-6.06-1.84-12.12-3.68-18.22-5.52c5.69,4.41,11.34,8.82,16.98,13.24C6512.56,4974.14,6518.59,4976.42,6524.57,4978.71z
					 M6542.81,4995.01c-5.26-4.7-10.48-9.41-15.77-14.1c-5.77-2.22-11.61-4.42-17.42-6.62c5.45,4.3,10.88,8.61,16.3,12.92
					C6531.55,4989.81,6537.21,4992.4,6542.81,4995.01z M6561.23,5011.48c-5.08-4.6-10.25-9.18-15.4-13.77
					c-5.28-2.47-10.65-4.92-15.96-7.38c5.3,4.2,10.6,8.4,15.83,12.62C6550.88,5005.8,6556.1,5008.63,6561.23,5011.48z
					 M6578.63,5027.4c-4.51-4.13-8.94-8.28-13.47-12.41c-4.75-2.64-9.61-5.26-14.39-7.9c4.65,3.79,9.29,7.59,13.93,11.38
					C6569.35,5021.45,6574.02,5024.42,6578.63,5027.4z M6594.83,5042.35c-3.71-3.44-7.45-6.88-11.18-10.32
					c-3.6-2.34-7.29-4.66-10.91-6.99c4.25,3.46,8.53,6.92,12.72,10.39C6588.58,5037.73,6591.71,5040.04,6594.83,5042.35z
					 M6606.65,5053.27c-1.26-1.18-2.54-2.35-3.81-3.52c-0.99-0.74-2-1.47-2.99-2.21
					C6602.11,5049.45,6604.39,5051.36,6606.65,5053.27z M6317.88,4781.49c-6.1-5.03-12.35-10.01-18.56-15
					c-8.04,3.43-16.05,6.82-24.1,10.26c6.29,4.58,12.58,9.16,18.78,13.77C6301.97,4787.5,6309.93,4784.49,6317.88,4781.49z
					 M6337.15,4797.63c-6.09-5.09-12.08-10.21-18.21-15.28c-7.93,2.99-15.88,6-23.82,9c6.23,4.65,12.35,9.32,18.54,13.98
					C6321.49,4802.77,6329.33,4800.19,6337.15,4797.63z M6356.54,4813.91c-6.06-5.14-12.2-10.26-18.33-15.38
					c-7.79,2.55-15.6,5.11-23.4,7.67c6.23,4.68,12.49,9.36,18.65,14.07C6341.17,4818.14,6348.85,4816.02,6356.54,4813.91z
					 M6375.83,4830.38c-6.03-5.19-12.1-10.37-18.19-15.55c-7.65,2.11-15.31,4.21-22.98,6.33c6.18,4.74,12.27,9.51,18.4,14.26
					C6360.65,4833.73,6368.25,4832.05,6375.83,4830.38z M6394.99,4847.06c-6-5.24-11.99-10.49-18.05-15.72
					c-7.55,1.67-15.11,3.34-22.68,5.02c6.16,4.78,12.3,9.57,18.4,14.37C6380.11,4849.5,6387.55,4848.28,6394.99,4847.06z
					 M6414.31,4863.89c-5.98-5.3-12.11-10.55-18.17-15.82c-7.4,1.21-14.8,2.43-22.22,3.66c6.14,4.82,12.29,9.65,18.37,14.5
					C6399.64,4865.44,6406.98,4864.66,6414.31,4863.89z M6433.21,4880.95c-5.92-5.33-11.76-10.69-17.73-16
					c-7.28,0.77-14.59,1.54-21.9,2.32c6.09,4.87,12.08,9.77,18.12,14.66C6418.87,4881.6,6426.07,4881.26,6433.21,4880.95z
					 M6452.3,4898.18c-5.9-5.38-11.88-10.74-17.85-16.11c-7.09,0.31-14.25,0.65-21.37,0.97c6.08,4.91,12.21,9.8,18.21,14.73
					C6438.32,4897.91,6445.31,4898.04,6452.3,4898.18z M6471.16,4915.57c-5.82-5.4-11.64-10.8-17.52-16.18
					c-6.94-0.14-13.88-0.28-20.85-0.41c5.98,4.93,11.83,9.9,17.76,14.85C6457.41,4914.41,6464.33,4914.98,6471.16,4915.57z
					 M6489.96,4933.15c-5.77-5.43-11.57-10.86-17.4-16.28c-6.77-0.59-13.63-1.15-20.43-1.73c5.96,4.97,11.93,9.94,17.83,14.92
					C6476.62,4931.1,6483.33,4932.11,6489.96,4933.15z M6508.87,4950.98c-5.73-5.48-11.56-10.93-17.37-16.39
					c-6.56-1.03-13.2-2.04-19.79-3.06c5.87,4.97,11.69,9.96,17.51,14.95C6495.79,4947.97,6502.33,4949.48,6508.87,4950.98z
					 M6527.27,4968.8c-5.58-5.41-11.13-10.83-16.76-16.23c-6.44-1.49-12.91-2.97-19.39-4.44c5.79,4.98,11.54,9.96,17.28,14.95
					C6514.69,4964.99,6521.03,4966.88,6527.27,4968.8z M6546.06,4986.99c-5.57-5.47-11.26-10.92-16.91-16.37
					c-6.15-1.89-12.37-3.76-18.55-5.65c5.72,4.97,11.45,9.93,17.1,14.92C6533.85,4982.26,6539.95,4984.63,6546.06,4986.99z
					 M6564.18,5005.08c-5.33-5.32-10.57-10.65-15.93-15.96c-6.02-2.34-12.02-4.69-18.08-7.02c5.49,4.87,10.91,9.75,16.37,14.63
					C6552.46,4999.5,6558.29,5002.3,6564.18,5005.08z M6582.42,5023.35c-5.21-5.27-10.48-10.52-15.75-15.78
					c-5.71-2.7-11.34-5.41-17.08-8.1c5.45,4.85,10.93,9.7,16.3,14.57C6571.46,5017.13,6576.9,5020.25,6582.42,5023.35z
					 M6600.15,5041.44c-4.86-4.99-9.71-9.99-14.61-14.97c-5.27-2.97-10.48-5.94-15.79-8.9c4.91,4.5,9.76,9.02,14.66,13.53
					C6589.71,5034.54,6594.89,5038,6600.15,5041.44z M6617.14,5059.04c-4.39-4.57-8.8-9.13-13.22-13.69
					c-4.74-3.12-9.44-6.25-14.21-9.36c4.66,4.29,9.34,8.57,13.95,12.87C6608.19,5052.26,6612.64,5055.65,6617.14,5059.04z
					 M6633.2,5075.74c-3.52-3.71-7.08-7.4-10.65-11.1c-3.56-2.69-7.07-5.4-10.65-8.09c3.41,3.22,6.76,6.45,10.16,9.68
					C6625.79,5069.41,6629.51,5072.57,6633.2,5075.74z M6642.58,5085.77c-0.53-0.57-1.06-1.14-1.59-1.7
					c-0.74-0.64-1.46-1.27-2.2-1.9C6640.05,5083.37,6641.33,5084.57,6642.58,5085.77z M5817.22,4971.29l-12.46,5.99l11.57-4.46
					l12.58-5.45L5817.22,4971.29z M5842.96,4958.93l-17.13,8.22l15.91-5.33l17.16-7.42L5842.96,4958.93z M5868.67,4946.59
					l-19.43,9.32c5.98-1.7,11.94-3.39,17.92-5.09l19.38-8.38C5880.58,4943.83,5874.63,4945.2,5868.67,4946.59z M5894.4,4934.25
					l-20.83,9.99c6.34-1.47,12.68-2.95,19.02-4.42c6.89-2.98,13.79-5.97,20.67-8.94C5906.97,4932.01,5900.7,4933.13,5894.4,4934.25z
					 M5920.11,4921.94l-21.72,10.41c6.54-1.17,13.06-2.33,19.59-3.5c7.22-3.12,14.41-6.22,21.62-9.33
					C5933.11,4920.32,5926.62,4921.12,5920.11,4921.94z M5945.82,4909.63l-22.35,10.7c6.68-0.83,13.35-1.66,20.01-2.48l22.14-9.55
					C5959.02,4908.74,5952.45,4909.17,5945.82,4909.63z M5971.46,4897.36l-22.76,10.88c6.75-0.46,13.44-0.9,20.15-1.35
					c7.55-3.25,15.1-6.52,22.64-9.77C5984.83,4897.2,5978.14,4897.28,5971.46,4897.36z M5997.2,4885.06
					c-7.73,3.69-15.47,7.4-23.21,11.09c6.77-0.08,13.56-0.16,20.32-0.24l22.99-9.9C6010.62,4885.69,6003.91,4885.38,5997.2,4885.06z
					 M6022.88,4872.8c-7.81,3.72-15.61,7.45-23.42,11.18c6.78,0.32,13.55,0.64,20.3,0.97c7.77-3.34,15.52-6.68,23.28-10.01
					C6036.36,4874.22,6029.59,4873.52,6022.88,4872.8z M6048.63,4860.51c-7.9,3.77-15.81,7.55-23.72,11.32
					c6.77,0.72,13.61,1.43,20.35,2.16c7.79-3.35,15.59-6.7,23.37-10.05C6061.96,4862.8,6055.34,4861.64,6048.63,4860.51z
					 M6074.28,4848.29c-7.93,3.78-15.86,7.56-23.8,11.34c6.75,1.14,13.42,2.3,20.14,3.46c7.86-3.38,15.75-6.78,23.6-10.15
					C6087.58,4851.38,6080.95,4849.83,6074.28,4848.29z M6099.96,4836.05c-7.98,3.8-15.98,7.61-23.97,11.42
					c6.7,1.55,13.38,3.11,20.06,4.67c7.94-3.41,15.85-6.79,23.79-10.2C6113.25,4839.97,6106.59,4838.02,6099.96,4836.05z
					 M6125.66,4823.83c-8.03,3.82-16.06,7.64-24.1,11.46c6.66,1.97,13.36,3.94,19.99,5.92c7.96-3.42,15.92-6.82,23.87-10.23
					C6138.87,4828.58,6132.24,4826.22,6125.66,4823.83z M6151.35,4811.62c-8.06,3.83-16.12,7.66-24.18,11.5
					c6.61,2.4,13.28,4.77,19.85,7.19c7.97-3.42,15.96-6.85,23.93-10.26C6164.46,4817.22,6157.87,4814.43,6151.35,4811.62z
					 M6177.04,4799.42l-24.26,11.52c6.55,2.82,13.16,5.62,19.67,8.45l23.99-10.27C6190.02,4805.87,6183.5,4802.65,6177.04,4799.42z
					 M6202.72,4787.23l-24.32,11.54c6.49,3.25,13.04,6.48,19.48,9.74c8.03-3.43,16.03-6.85,24.05-10.27
					C6215.57,4794.55,6209.13,4790.9,6202.72,4787.23z M6228.41,4775.05c-8.12,3.85-16.25,7.7-24.38,11.56
					c6.43,3.68,12.89,7.35,19.27,11.04c8.03-3.43,16.06-6.87,24.09-10.29C6241.09,4783.25,6234.75,4779.15,6228.41,4775.05z
					 M6254.11,4762.88c-8.14,3.85-16.28,7.71-24.43,11.57c6.36,4.11,12.71,8.22,19.03,12.34c8.03-3.43,16.09-6.88,24.11-10.3
					C6266.6,4771.95,6260.38,4767.41,6254.11,4762.88z M6279.82,4750.72c-8.15,3.85-16.31,7.72-24.47,11.58
					c6.28,4.54,12.52,9.09,18.77,13.64c8.08-3.44,16.11-6.85,24.17-10.29C6292.12,4760.67,6286.02,4755.68,6279.82,4750.72z
					 M2615.77,5520.08c433.08,384.1,921.98,566.62,1438.06,311.98c511.62-252.44,1097.43-541.47,1684.29-824.05
					c-512.8,222.66-1030.07,451.88-1506.57,663.03c-54.99,24.36-109.43,48.49-163.26,72.34
					c-531.93,235.65-1023.45,51.85-1452.53-325.01v-1.49c428.94,377.02,920.31,560.99,1452.04,325.43
					c53.83-23.85,108.27-47.97,163.26-72.34c484.98-214.91,1012.18-448.52,1533.94-674.9l12.79-6.15
					c-570.35,219.79-1154.53,450.65-1695.57,664.73c-547.47,216.62-1041.47,31.35-1466.46-338.51v-1.5
					c424.86,370.02,918.72,555.46,1466.02,338.92c545.38-215.79,1134.58-448.63,1709.24-669.99l17.15-8.24
					c-565.58,189.78-1152.93,393.28-1712.01,589.59c-562.93,197.66-1059.43,10.88-1480.4-352.03v-1.51
					c420.85,363.08,917.23,550.04,1480,352.43c562.04-197.35,1152.66-401.96,1720.99-592.6c6.49-3.12,12.99-6.24,19.48-9.35
					c-560.02,159.42-1149.69,335.12-1726.13,513.33c-578.29,178.78-1077.32-9.55-1494.34-365.59v-1.52
					c416.9,356.21,915.82,544.72,1493.98,365.98c578.71-178.91,1170.75-355.3,1732.76-515.22c6.95-3.33,13.89-6.67,20.84-10
					c-554.16,128.9-1145.78,276.63-1739.31,436.61c-593.56,159.98-1095.15-29.93-1508.28-379.17v-1.53
					c413.02,349.42,914.51,539.51,1507.96,379.56c595.39-160.48,1188.86-308.63,1744.53-437.82c7.25-3.48,14.5-6.96,21.76-10.43
					c-548.14,98.31-1141.54,217.97-1752.03,359.65c-608.72,141.26-1112.91-50.27-1522.22-392.79v-1.53
					c409.2,342.7,913.3,534.42,1521.94,393.17c612.06-142.04,1206.96-261.95,1756.3-360.42l22.39-10.73
					c-542.02,67.68-1137.11,159.22-1764.48,282.55c-623.79,122.62-1130.59-70.56-1536.15-406.44v-1.53
					c405.46,336.07,912.18,529.43,1535.92,406.82c628.75-123.6,1225.07-215.27,1768.07-283l22.84-10.93
					c-535.86,37.02-1132.53,100.39-1776.74,205.35c-638.76,104.07-1148.21-90.81-1550.09-420.13v-1.53
					c401.78,329.5,911.17,524.56,1549.9,420.5c645.44-105.15,1243.17-168.58,1779.82-205.57l23.15-11.07
					c-529.65,6.33-1127.83,41.5-1788.84,128.06c-653.62,85.6-1165.76-111.01-1564.03-433.85v-1.54
					c398.18,323.02,910.26,519.82,1563.88,434.22c662.12-86.71,1261.21-121.85,1791.52-128.1c7.84-3.75,15.68-7.5,23.51-11.24
					c-523.4-24.37-1123.15-17.4-1800.94,50.77c-668.37,67.21-1183.23-131.18-1577.97-447.61v-1.54
					c394.64,316.62,909.45,515.19,1577.86,447.97c678.81-68.27,1279.35-75.17,1803.32-50.67c7.9-3.77,15.79-7.54,23.68-11.31
					c-517.14-55.09-1118.37-76.34-1812.94-26.6c-683.01,48.92-1200.63-151.28-1591.92-461.41v-1.54
					c391.18,310.31,908.76,510.7,1591.84,461.77c695.5-49.82,1297.43-28.45,1815.06,26.8c7.98-3.81,15.97-7.62,23.95-11.43
					c-510.85-85.82-1113.66-135.27-1824.98-103.94c-697.55,30.72-1217.95-171.34-1605.86-475.24v-1.54
					c387.8,304.08,908.17,506.33,1605.81,475.6c712.19-31.37,1315.6,18.24,1826.88,104.24c7.99-3.81,15.98-7.62,23.97-11.42
					c-504.56-116.56-1108.78-194.28-1836.86-181.38c-711.97,12.61-1235.2-191.36-1619.8-489.12v-1.53
					c384.5,297.93,907.7,502.09,1619.79,489.47c728.89-12.91,1333.66,64.98,1838.59,181.74c8.04-3.83,16.08-7.67,24.12-11.49
					c-498.25-147.3-1103.91-253.28-1848.74-258.82c-726.26-5.4-1252.37-211.33-1633.75-503.03v-1.53
					c381.27,291.88,907.34,497.98,1633.76,503.38c745.59,5.54,1351.76,111.72,1850.33,259.24c8.08-3.85,16.15-7.69,24.23-11.53
					c-491.93-178.05-1099.05-312.3-1860.62-336.28c-740.44-23.31-1269.45-231.24-1647.7-516.98v-1.53
					c378.13,285.91,907.11,494.02,1647.73,517.33c762.3,24,1369.87,158.46,1862.09,336.74c8.1-3.85,16.2-7.71,24.3-11.55
					c-485.61-208.82-1094.17-371.34-1872.48-413.76c-754.5-41.12-1286.45-251.1-1661.64-530.98v-1.52
					c375.07,280.04,907,490.19,1661.7,531.33c779,42.46,1387.98,205.2,1873.85,414.26c8.13-3.86,16.25-7.71,24.36-11.57
					c-479.27-239.58-1089.27-430.39-1884.33-491.25c-768.42-58.83-1303.38-270.92-1675.59-545.02v-1.52
					c372.09,274.26,907.01,486.52,1675.68,545.37c795.71,60.92,1406.1,251.95,1885.61,491.78c8.14-3.86,16.28-7.73,24.42-11.58
					c-472.93-270.36-1084.37-489.45-1896.17-568.77c-782.22-76.43-1320.21-290.67-1689.53-559.11v-1.51
					c369.19,268.58,907.15,482.99,1689.65,559.45c812.42,79.38,1424.21,298.71,1897.36,569.32c8.16-3.87,16.31-7.74,24.46-11.6
					c-466.59-301.14-1079.45-548.52-1907.99-646.3c-795.94-93.93-1336.95-310.42-1703.48-573.31v-1.46
					c366.39,263.01,907.41,479.63,1703.62,573.6c829.13,97.85,1442.34,345.47,1909.12,646.87c8.17-3.87,16.34-7.74,24.51-11.6
					c-460.24-331.93-1074.54-607.6-1919.82-723.84c-809.6-111.34-1353.61-330.18-1717.43-587.66v-1.45
					c363.67,257.58,907.69,476.56,1717.59,587.94c845.84,116.32,1460.47,392.24,1920.89,724.43c8.18-3.87,16.37-7.75,24.54-11.61
					c-453.88-362.72-1069.63-666.69-1931.64-801.4c-823.14-128.63-1370.18-349.88-1731.38-602.04v-1.44
					c361.04,252.26,908.09,473.63,1731.56,602.31c862.56,134.79,1478.62,439.01,1932.67,801.99
					c233.77-110.53,464.04-217.85,686.04-319.16c226.93-103.56,445.18-200.81,649.73-288.8v1.28
					c-204.4,87.93-422.48,185.11-649.23,288.59c-221.83,101.23-451.93,208.48-685.52,318.92c6.22,4.97,12.33,9.98,18.51,14.97
					c469.29-199.96,920.24-386.34,1316.24-539.21v1.25c-395.7,152.77-846.28,338.99-1315.2,538.79c6.22,5.01,12.49,10,18.61,15.04
					c224.15-84.65,443.06-166.04,653.01-242.33c226.53-82.33,442.61-158.72,643.58-226.9v1.25
					c-200.85,68.15-416.78,144.49-643.17,226.76c-209.76,76.23-428.46,157.53-652.38,242.09c6.15,5.09,12.16,10.23,18.27,15.33
					c219.41-71.83,432.75-140.37,636.78-204.28c226.45-70.93,441.4-136.14,640.5-193.81v1.23
					c-198.99,57.64-413.82,122.81-640.14,193.71c-203.81,63.84-416.91,132.31-636.07,204.05c6.15,5.14,12.31,10.27,18.39,15.43
					c283.47-77.98,554.91-150.22,807.97-214.65c157.59-40.13,308.03-77.22,449.85-110.82v1.21
					c-141.74,33.58-292.08,70.65-449.56,110.75c-252.82,64.38-523.98,136.54-807.17,214.43c6.11,5.19,12.19,10.4,18.25,15.61
					c191.76-42.34,377.07-81.9,554.2-118.38c245.29-50.51,474.87-95.09,684.28-132.92v1.2c-209.34,37.82-438.84,82.38-684.04,132.88
					c-176.86,36.42-361.89,75.93-553.34,118.19c6.08,5.25,12.1,10.52,18.13,15.78c91.43-15.01,181.18-29.38,269.05-43.07
					c349.3-54.44,669.27-98.46,950.2-132.33v1.19c-280.87,33.86-600.78,77.88-950.02,132.3c-87.56,13.65-176.99,27.96-268.08,42.91
					c6.08,5.3,12.23,10.58,18.23,15.91c8.67-0.91,17.32-1.82,25.96-2.72c442.12-46.12,838.07-75.93,1173.91-94.78v1.18
					c-335.81,18.85-731.71,48.65-1173.78,94.77c-8.28,0.86-16.59,1.74-24.9,2.61c6,5.35,11.88,10.73,17.83,16.1
					c450.75-19.8,847.69-21.81,1180.86-17.44v1.18c-332.85-4.36-729.37-2.36-1179.61,17.39c6,5.4,12.04,10.8,17.97,16.22
					c449.15,9.06,837.91,36.7,1161.64,65.11v1.18c-323.4-28.38-711.71-56-1160.3-65.08c5.92,5.42,11.76,10.87,17.62,16.31
					c448.05,39.05,828.49,97.56,1142.68,150.5v1.2c-313.85-52.88-693.82-111.34-1141.27-150.38c5.89,5.47,11.75,10.95,17.58,16.44
					c447.38,70.33,819.23,161.1,1123.7,239.08v1.22c-304.1-77.89-675.45-168.55-1122.15-238.85c5.86,5.52,11.72,11.03,17.51,16.57
					c447.14,103.13,810.1,227.73,1104.64,331.27v1.25c-294.16-103.41-656.59-227.86-1103-330.93c5.72,5.49,11.37,11,17.04,16.5
					c447.76,137.71,801.46,298.13,1085.96,427.81v1.3c-284.08-129.48-637.18-289.66-1084.07-427.28
					c5.76,5.57,11.58,11.12,17.25,16.7c436.39,169.51,773.54,361.74,1043.87,515.9l22.95,13.09v1.36l-23.55-13.42
					c-269.76-153.84-606.1-345.6-1041.2-514.84c5.5,5.46,10.91,10.94,16.38,16.4c422.98,200.22,742.58,422.96,998.18,601.15
					c17.01,11.86,33.73,23.51,50.19,34.96v1.44c-16.67-11.59-33.63-23.41-50.87-35.43c-254.95-177.73-573.6-399.8-995.01-599.62
					c5.49,5.48,10.99,10.95,16.41,16.44c411.31,231.53,714.34,485.53,955.78,687.96c25.22,21.15,49.77,41.72,73.69,61.66v1.54
					c-24.17-20.14-48.97-40.93-74.46-62.3c-240.66-201.78-542.55-454.81-951.89-685.73c5.15,5.26,10.2,10.53,15.31,15.8
					c401.09,263.6,688.27,549.79,916,776.8c32.87,32.76,64.49,64.28,95.05,94.33v1.66c-30.82-30.3-62.72-62.1-95.89-95.16
					c-226.84-226.12-512.68-510.98-911.38-773.72c4.98,5.13,9.96,10.27,14.89,15.42c391.48,296.34,662.97,615.43,877.12,867.19
					c40.31,47.4,78.59,92.39,115.26,134.41v1.8c-36.95-42.32-75.52-87.66-116.17-135.45c-212.98-250.39-482.7-567.39-870.8-862.35
					c4.39,4.61,8.7,9.23,13.05,13.84c382.4,329.81,638.26,682.58,838.94,959.35c47.81,65.93,92.48,127.53,134.99,183.49v1.96
					c-42.8-56.3-87.79-118.34-135.95-184.76c-199.12-274.63-452.61-624.11-830.19-951.71c3.43,3.68,6.89,7.35,10.3,11.02
					c373.74,364.04,613.92,751.35,801.17,1053.37c22.52,36.32,44.26,71.4,65.39,105.06h-1.4c-21-33.48-42.63-68.35-65.01-104.44
					c-184.19-297.09-419.62-676.7-783.02-1035.49c362,395.2,585.63,813.63,758.81,1139.94h-1.35
					c-175.81-331.26-403.7-757.34-775.5-1157.64c-12.44-12.12-25.07-24.21-37.79-36.27c-12.09-10.29-24.24-20.57-36.6-30.8
					c-13.72-10.13-27.59-20.22-41.59-30.29c-12.83-8.11-25.8-16.2-38.86-24.26c-13.7-7.35-27.49-14.67-41.42-21.96
					c-13.75-6.13-27.66-12.23-41.6-18.31c-14.2-5.13-28.46-10.24-42.86-15.31c-14.14-3.98-28.4-7.93-42.72-11.86
					c-14.63-3.03-29.38-6.02-44.17-8.99c-14.94-2.02-29.98-4.02-45.07-6c-14.89-1.01-29.91-1.98-44.94-2.95
					c-15.23-0.05-30.58-0.06-45.94-0.07c-15.47,0.9-31.04,1.83-46.63,2.78c-15.59,1.83-31.23,3.68-46.92,5.55
					c-15.88,2.77-31.79,5.55-47.75,8.35c-16.15,3.7-32.34,7.42-48.56,11.16c-16.33,4.61-32.69,9.24-49.07,13.88
					c-16.55,5.53-33.12,11.07-49.71,16.62c-16.69,6.41-33.39,12.83-50.1,19.27c-17.03,7.38-34.07,14.77-51.11,22.17
					c-595.85,286.69-1191.79,580.71-1711.25,837.02c-516.3,254.75-1005.36,72.4-1438.59-311.55V5520.08z"/>
			</defs>
			<clipPath id="SVGID_00000056386384092325994980000011685048952954151102_">
				<use xlink:href="#SVGID_1_"  style="overflow:visible;"/>
			</clipPath>
			
				<linearGradient id="SVGID_00000001651234319481298970000006435932902030723983_" gradientUnits="userSpaceOnUse" x1="2707.1689" y1="4803.021" x2="7615.7979" y2="4803.021">
				<stop  offset="0" style="stop-color:#FF3398"/>
				<stop  offset="0.32" style="stop-color:#FFFF66"/>
				<stop  offset="0.68" style="stop-color:#00CBFF"/>
				<stop  offset="1" style="stop-color:#CB33FF"/>
			</linearGradient>
			
				<rect x="2615.77" y="3345.02" style="clip-path:url(#SVGID_00000056386384092325994980000011685048952954151102_);fill:url(#SVGID_00000001651234319481298970000006435932902030723983_);" width="5000" height="2916"/>
		</g>
	</g>
</g>
<g id="Capa_3" class="st0">
	<rect x="11.55" y="-11.25" class="st3" width="10732.6" height="9638.73"/>
</g>
<g id="Capa_2" class="st0">
	<path class="st4" d="M7581.82,8836.45c0,0-338.25-1034.63-2118.04-2459.29c-282.74-226.33-1670.98-1456.03-2109.59-3223.17
		l-50.54-222.59l-61.23-289.44l-49.53-356.67l-47.31-567.61c0,0-13-910.41,20.42-1143.78"/>
	<path class="st4" d="M7673.21,8689.7c0,0-360.29-1082.77-2125.79-2437.52c-287.33-220.48-1697.94-1368.43-2234.64-3272.53
		L3221,2606.89l-79.15-408.11l-85.05-771.53l-28-962.77"/>
	<path class="st4" d="M7768.09,8543.22c0,0-350.68-1042.52-2116.18-2397.27c-287.33-220.48-1788.87-1417.82-2365.02-3242.37
		l-150.07-523.64l-86.97-440.23l-99.47-652.22l-77.06-828.17"/>
	<path class="st4" d="M7862.68,8403.32c0,0-420.68-1195.56-2217.34-2455.62c-296.52-207.96-1662.07-1228.27-2383.79-3089.83
		l-157.43-455.12l-169.96-638.99l-115.03-600.06l-82.63-473.46"/>
	<path class="st4" d="M7945.58,8248.35c0,0-175.18-915.07-1950.61-2223.92c-291.52-214.91-1919.49-1259.94-2789.73-3248.49
		l-146.31-355.19l-248.03-733.83l-202.5-791.25"/>
	<path class="st4" d="M8030.6,8114.61c0,0-183.13-969.67-1943.21-2196.54C5790.28,5710.96,4153.6,4665,3183.69,2801.52
		l-201.52-410.91l-287.63-697.2l-203.22-580.7"/>
	<path class="st4" d="M8119.17,7973.09c0,0-263.26-1068.37-1940.73-2187.13c-301.31-200.95-2025.53-1246.05-3081.62-3066.6
		l-240-410.7l-306.9-634.46l-177.54-373.69"/>
	<path class="st4" d="M8203.55,7789.29c0,0-392.15-1253.72-2239.97-2320.49c-1520.6-877.86-2674.28-2336.2-3038.59-2912.61
		l-282.07-443.29l-385.14-657.79"/>
	<path class="st4" d="M8292.94,7637.13c0,0-228.3-1130.7-2231.37-2256.03c-1418.96-797.18-2765.12-2182.88-3260.14-2855.91
		l-632.48-861.87"/>
	<path class="st4" d="M8409.02,7544.79c-10.44-25.64-407.07-1217.43-1735.12-1973.54
		c-1198.83-682.54-1514.94-900.24-1936.73-1204.95c-1125.54-813.11-1889.14-1648.89-2119.56-1919.33l-542.86-624.65"/>
	<path class="st4" d="M8478.4,7357.63c-10.44-25.64-420.81-1227.21-1643.88-1874.06C5185.29,4611.33,4681.94,4250.31,4260.15,3945.6
		c-1125.54-813.11-1463.5-1194.38-1824.14-1518l-455.29-448.74"/>
	<path class="st4" d="M8567.98,7212.6c-169.97-332.21-523.39-1363.07-1977.03-2034.44
		c-1742.82-804.93-2149.77-1179.88-2582.88-1439.44c-561.45-336.46-939.89-673.19-1630.31-1199.86l-484.1-404.43"/>
	<path class="st4" d="M8641.01,7083.16c-10.44-25.64-425.92-1352.56-1706.27-1898.24
		c-1584.37-675.26-2814.47-1390.6-3296.45-1686.38c-182.24-111.84-333.54-205.07-457.39-284.41
		c-572.91-367.01-751.93-494.07-955.73-637.82l-423.52-299.5"/>
	<path class="st4" d="M9095.33,6322.48c-10.44-25.64-324.75-1420.31-1852.99-1799.21C5115.73,3996.02,4242,3769.09,3739.96,3632.3
		c-431.56-117.58-1573.62-438.74-1698.69-469.36l-642.57-201.68"/>
	<path class="st4" d="M9173.48,6160.36c-10.44-25.64-424.7-1309.62-1340.46-1606.8c-1145.36-371.7-3351.48-710.79-4073.85-893.25
		c-303.11-76.57-1326.88-274.66-1777.75-404.96l-657.08-164.25"/>
	<path class="st4" d="M9272.76,5999.26c-10.44-25.64-424.95-1463.89-1685.54-1678.27c-1598.35-271.82-3161.66-487.58-3832.25-636.32
		c-393.28-87.23-1076.29-164.55-1770.87-321.61l-745.48-148.85"/>
	<path class="st4" d="M9351.26,5866.76c-10.44-25.64-275.48-1288.9-1427.84-1612.54c-607.31-170.56-3863.08-480.69-4227.96-551.1
		c-2.16-0.42-1183.4-156.41-1568.97-213.5l-969.8-150.05"/>
	<path class="st4" d="M9442.38,5730.22c-10.44-25.64-325.64-1487.58-1590.06-1640.88c-1679.66-203.64-3836.75-304.91-4370.43-368.91
		c-1156.8-138.73-1447.23-153.52-1451.23-159.73l-920.31-104.11"/>
	<path class="st4" d="M8737.81,6919.34c-10.44-25.64-391.19-1306.81-1677.25-1838.88
		c-1717.01-710.37-2955.49-1321.99-3365.42-1535.44c-445.2-231.82-394.49-207.07-539.87-289.79
		c-436.06-248.11-776.21-416.39-980.01-560.15l-458.07-271.38"/>
	<path class="st4" d="M8826.77,6762.44c-10.44-25.64-389.96-1322.77-1692.79-1812.38
		c-1788.3-672.05-2916.86-1148.11-3337.16-1340.34c-383.3-175.3-489.72-228.76-816.03-383.72
		c-255.14-121.16-725.8-341.77-988.07-481.81l-348.49-175.78"/>
	<path class="st4" d="M8917.13,6615.22c-10.44-25.64-378.98-1350.2-1696.73-1798.08C5544.68,4247.59,4233.33,3802.6,3805.96,3626.65
		c-360.79-148.54-730.33-286.62-883.21-354.48c-258.16-114.59-703.74-277.54-972.92-403.79c-101.2-47.47-391.5-174.41-391.5-174.41"
		/>
	<path class="st4" d="M9004.63,6475.62c-10.44-25.64-371.48-1399.81-1708.54-1786.25
		c-1389.46-401.58-3022.38-876.92-3449.33-1053.89c-21.56-8.94-768.48-240.91-927.58-292.54
		c-572.68-185.85-780.89-274.68-1068.39-372.12c-103.9-35.22-373.2-140.55-373.2-140.55"/>
</g>
<g id="_x31_" class="st0">
	<path class="st4" d="M7582,8844.7c0,0-338.25-1034.63-2118.04-2459.29c-282.74-226.33-1670.98-1456.03-2109.59-3223.17
		l-50.54-222.59l-61.23-289.44l-49.53-356.67l-47.31-567.61c0,0-13-910.41,20.42-1143.78"/>
</g>
<g id="_x32_" class="st0">
	<path class="st4" d="M7674.08,8688.1c0,0-360.29-1082.77-2125.79-2437.52c-287.33-220.48-1697.94-1368.43-2234.64-3272.53
		l-91.79-372.76l-79.15-408.11l-85.05-771.53l-28-962.77"/>
</g>
<g id="_x33_" class="st0">
	<path class="st4" d="M7770.92,8547.48c0,0-350.68-1042.52-2116.18-2397.27c-287.33-220.48-1788.87-1417.83-2365.02-3242.37
		l-150.07-523.64l-86.97-440.23l-99.47-652.22l-77.06-828.17"/>
</g>
<g id="_x34_" class="st0">
	<path class="st4" d="M7865.51,8399.07c0,0-420.68-1195.56-2217.34-2455.62c-296.52-207.96-1662.07-1228.27-2383.79-3089.83
		l-157.43-455.12l-169.96-638.99l-115.03-600.06L2739.32,686"/>
</g>
<g id="_x35_" class="st0">
	<path class="st4" d="M7948.41,8254.6c0,0-175.18-915.07-1950.61-2223.92c-291.52-214.91-1919.49-1259.94-2789.73-3248.49
		L3061.76,2427l-248.03-733.83l-202.5-791.25"/>
</g>
<g id="_x36_" class="st0">
	<path class="st4" d="M8028.14,8116.23c0,0-183.13-969.67-1943.21-2196.54c-297.11-207.1-1933.79-1253.07-2903.7-3116.55
		l-201.52-410.91l-287.63-697.2l-203.22-580.7"/>
</g>
<g id="_x37_" class="st0">
	<path class="st4" d="M8122,7977.99c0,0-263.26-1068.37-1940.73-2187.13c-301.31-200.95-2025.53-1246.05-3081.62-3066.6l-240-410.7
		l-306.9-634.46l-177.54-373.69"/>
</g>
<g id="_x38_" class="st0">
	<path class="st4" d="M8206.38,7798.23c0,0-392.15-1253.72-2239.97-2320.49c-1520.6-877.86-2674.28-2336.2-3038.59-2912.61
		l-282.07-443.29l-385.14-657.79"/>
</g>
<g id="_x39_" class="st0">
	<path class="st4" d="M8295.77,7644.51c0,0-228.3-1130.7-2231.37-2256.03C4645.44,4591.3,3299.28,3205.6,2804.26,2532.57
		l-632.48-861.87"/>
</g>
<g id="_x31_0" class="st0">
	<path class="st4" d="M8406.56,7539.95c-10.44-25.64-407.07-1217.43-1735.12-1973.54
		c-1198.83-682.54-1514.94-900.24-1936.73-1204.94c-1125.54-813.11-1889.14-1648.89-2119.56-1919.33l-542.86-624.65"/>
</g>
<g id="_x31_1" class="st0">
	<path class="st4" d="M8475.94,7357.54c-10.44-25.64-420.81-1227.22-1643.88-1874.06
		C5182.83,4611.24,4679.48,4250.22,4257.7,3945.52c-1125.54-813.11-1463.5-1194.38-1824.14-1518l-455.29-448.74"/>
</g>
<g id="_x31_2" class="st0">
	<path class="st4" d="M8565.53,7217.81c-169.97-332.21-523.39-1363.07-1977.03-2034.44
		c-1742.82-804.93-2149.77-1179.88-2582.88-1439.44c-561.45-336.46-939.89-673.19-1630.31-1199.86l-484.1-404.43"/>
</g>
<g id="_x31_3" class="st0">
	<path class="st4" d="M8649.12,7087.22c-10.44-25.64-425.92-1352.56-1706.27-1898.24
		c-1584.37-675.26-2814.47-1390.6-3296.45-1686.38c-182.24-111.84-333.54-205.07-457.39-284.41
		c-572.91-367.01-751.93-494.07-955.73-637.82l-423.52-299.5"/>
</g>
<g id="_x31_4" class="st0">
	<path class="st4" d="M8740.64,6918.59c-10.44-25.64-391.19-1306.81-1677.25-1838.88
		C5346.38,4369.35,4107.9,3757.72,3697.97,3544.27c-445.2-231.82-394.49-207.07-539.87-289.79
		c-436.06-248.11-776.21-416.39-980.01-560.15l-458.07-271.38"/>
</g>
<g id="_x31_5" class="st0">
	<path class="st4" d="M8829.59,6759.93c-10.44-25.64-389.96-1322.77-1692.79-1812.38
		c-1788.3-672.05-2916.86-1148.11-3337.16-1340.34c-383.3-175.3-489.72-228.76-816.03-383.72
		c-255.14-121.16-725.8-341.77-988.07-481.81l-348.49-175.78"/>
</g>
<g id="_x31_6" class="st0">
	<path class="st4" d="M8919.96,6618.26c-10.44-25.64-378.98-1350.2-1696.73-1798.08C5547.5,4250.64,4236.16,3805.65,3808.79,3629.7
		c-360.79-148.54-730.33-286.62-883.21-354.48c-258.16-114.59-703.74-277.54-972.92-403.79c-101.2-47.47-391.5-174.41-391.5-174.41"
		/>
</g>
<g id="_x31_7">
	<path class="st5" d="M9012.75,6480.32c-10.44-25.64-371.48-1399.81-1708.54-1786.25
		c-1389.46-401.58-3022.39-876.92-3449.33-1053.89c-21.56-8.94-768.48-240.91-927.58-292.54
		c-572.68-185.85-780.89-274.68-1068.39-372.12c-103.9-35.22-373.2-140.55-373.2-140.55"/>
</g>
<g id="_x31_8" class="st0">
	<path class="st4" d="M9092.88,6322.41c-10.44-25.64-324.75-1420.31-1852.99-1799.21c-2126.61-527.25-3000.34-754.18-3502.38-890.97
		c-431.56-117.58-1573.62-438.74-1698.69-469.36l-642.57-201.68"/>
</g>
<g id="_x31_9" class="st0">
	<path class="st4" d="M9176.31,6160.58c-10.44-25.64-424.7-1309.62-1340.46-1606.8C6690.49,4182.09,4484.37,3843,3762,3660.53
		c-303.11-76.57-1326.88-274.66-1777.75-404.96l-657.08-164.25"/>
</g>
<g id="_x32_0" class="st0">
	<path class="st4" d="M9269.87,5997.34c-10.44-25.64-424.95-1463.89-1685.54-1678.27c-1598.35-271.82-3161.66-487.58-3832.25-636.32
		c-393.28-87.23-1076.29-164.55-1770.87-321.61l-745.48-148.85"/>
</g>
<g id="_x32_1" class="st0">
	<path class="st4" d="M9343.52,5863.13c-10.44-25.64-275.48-1288.9-1427.84-1612.54c-607.31-170.56-3863.08-480.69-4227.96-551.1
		c-2.16-0.42-1183.4-156.41-1568.97-213.5l-969.8-150.05"/>
</g>
<g id="_x32_2" class="st0">
	<path class="st4" d="M9439.92,5731.06c-10.44-25.64-325.64-1487.58-1590.06-1640.88c-1679.66-203.64-3836.75-304.91-4370.43-368.91
		c-1156.8-138.73-1447.23-153.52-1451.23-159.73l-920.31-104.11"/>
</g>
</svg>
